<?xml version="1.0" encoding="utf-8"?>
<!-- Generator: Adobe Illustrator 27.5.0, SVG Export Plug-In . SVG Version: 6.00 Build 0)  -->
<svg version="1.1" id="Layer_1" xmlns="http://www.w3.org/2000/svg" xmlns:xlink="http://www.w3.org/1999/xlink" x="0px" y="0px"
	 viewBox="0 0 3400 2000" style="enable-background:new 0 0 3400 2000;" xml:space="preserve">
<rect style="fill:#76CBFF;" width="3400" height="2000"/>
<g>
	<path style="fill:#FFFFFF;" d="M661.933,211.316c12.509-25.502,41.01-41.525,68.551-38.537
		c0.776-31.48,26.778-55.779,53.071-71.568c41.912-25.169,90.033-39.211,138.545-40.43c54.31-1.364,111.166,14.734,149.738,54.442
		c1.422-7.875,9.992-11.683,17.478-13.726c24.869-6.788,51.003-8.635,76.564-5.409c14.23,1.796,28.659,5.317,40.499,13.708
		c11.839,8.391,20.703,22.437,20.041,37.243c18.578-7.776,39.175,3.793,55.55,15.842c7.542,5.55,15.202,11.596,19.449,20.1
		c4.248,8.504,4.028,20.146-2.931,26.413c32.672,3.456,53.745,41.842,50.161,75.587c-4.329,40.753-37.268,75.153-75.884,84.322
		c-38.616,9.17-80.687-5.106-109.907-32.926c-3.353,15.394-14.985,27.286-26.987,37.003c-40.813,33.046-92.478,51.505-144.39,51.587
		c-51.912,0.082-103.747-18.214-144.866-51.132c1.174,8.953-7.833,15.554-16.012,18.684c-38.826,14.855-86.519-0.424-110.561-35.42
		c-11.741,4.721-25.28,5.752-36.874,0.581c-11.593-5.171-20.626-17.256-20.449-30.299c0.177-12.934,10.679-25.055,23.415-25.153
		C650.808,300.224,650.506,234.613,661.933,211.316z"/>
	<path style="fill:#D7FBFF;" d="M1298.487,209.395c6.959-6.267,7.179-17.909,2.931-26.413c-4.248-8.504-11.907-14.55-19.449-20.1
		c-16.375-12.049-36.972-23.618-55.55-15.842c0.598-13.361-6.563-26.101-16.667-34.627c-1.572,7.011-5.819,13.171-12.605,15.405
		c15.112,14.128,27.018,34.457,24.156,55.274c-2.861,20.817-25.887,38.265-44.142,28.932c7.191,25.711-11.759,55.628-37.391,59.029
		c-9.514,1.263-20.865-1.887-24.554-11.063c-14.194,44.691-49.865,81.403-93.141,95.861c-43.275,14.457-93.083,6.301-130.052-21.297
		c-16.268-12.144-30.713-29.138-33.458-49.671c-4.673,19.312-12.915,38.251-26.936,51.864
		c-14.021,13.613-34.523,21.086-53.098,15.756c-18.576-5.33-33.245-25.314-29.936-44.93c-18.619,1.444-32.478-25.316-20.972-40.493
		c-15.134,8.771-34.722,8.707-49.858-0.162c-10.108-5.923-17.987-15.637-22.274-26.784c-1.78,27.552,5.699,60.68,30.644,62.096
		c-12.737,0.098-23.239,12.219-23.416,25.153c-0.177,13.043,8.856,25.128,20.449,30.299c11.593,5.171,25.133,4.14,36.874-0.581
		c24.042,34.996,71.735,50.275,110.561,35.42c8.179-3.129,17.187-9.731,16.012-18.684c41.119,32.918,92.954,51.214,144.866,51.132
		c51.912-0.082,103.577-18.54,144.391-51.587c12.001-9.718,23.634-21.61,26.986-37.003c29.221,27.82,71.291,42.096,109.907,32.926
		c38.616-9.169,71.555-43.569,75.884-84.322C1352.232,251.237,1331.159,212.851,1298.487,209.395z"/>
	<path style="fill:#D7FBFF;" d="M821.514,185.929c-1.086-20.142,18.206-35.27,36.983-40.642c14.09-4.031,30.122-4.54,42.463,3.631
		c10.728,7.104,16.987,19.637,20.683,32.238c-16.26-11.364-38.242-13.324-56.081-5.002c-9.29,4.334-18.324,13.835-15.717,24.047
		c-10.747-7.626-25.837-6.449-36.893,0.614c-11.053,7.062-18.448,19.075-22.81,31.74c-5.541,16.09-1.858,26.786,5.602,40.37
		C751.314,247.326,769.119,181.061,821.514,185.929z"/>
</g>
<path style="fill:#FFFFFF;" d="M1395.808,411.659c-8.973,0.543-17.921-1.158-26.905-1.496c-34.2-1.29-66.081,17.094-92.789,38.496
	c-26.708,21.401-50.772,46.6-80.735,63.139c-55.002,30.361-122.329,27.473-183.903,14.999c8.351,6.869,19.276,9.56,29.81,12.002
	c38.036,8.82,76.694,16.985,115.723,15.813c39.028-1.173,78.972-12.542,108.062-38.586c14.898-13.338,26.457-30.024,36.208-47.482
	c4.991-8.934,9.769-18.39,17.752-24.792c6.404-5.136,14.401-7.888,22.422-9.638c28.451-6.205,60.75-1.597,84.36-18.641
	c23.122-16.69,29.369-49.343,23.995-77.348C1455.513,367.86,1426.57,409.796,1395.808,411.659z"/>
<g>
	<g>
		<path style="fill:#FFFFFF;" d="M2266.196,381.396c-4.004-30.614-24.586-57.422-50.541-74.142
			c-25.955-16.72-56.82-24.344-87.518-27.643c-17.593-1.891-38.269-1.167-49.019,12.888c4.338-16.85-2.854-36.048-17.194-45.9
			c-14.341-9.853-34.841-9.68-49.014,0.413c-12.757-49.108-53.253-88.499-100.8-106.208
			c-47.547-17.709-101.065-15.308-149.425,0.042c-57.716,18.32-112.438,59.007-128.992,117.254
			c-38.402-11.072-82.789,2.786-108.071,33.74c-15.346,18.789-23.509,42.248-32.005,64.972
			c-8.495,22.724-16.681,47.427-35.335,62.937c-56.851,47.268-104.115,46.339-138.976,38.927
			c63.372,44.69,155.069,44.35,218.108-0.807c0.006,34.431,24.653,67.421,57.669,77.189c33.016,9.769,71.646-4.498,90.385-33.382
			c1.246,27.046,20.317,51.026,44.108,63.951c23.791,12.924,51.654,16.27,78.729,16.043c28.075-0.235,56.118-4.062,83.229-11.358
			c20.484-5.513,42.976-15.534,49.209-35.811c35.239,34.808,84.562,54.927,134.092,54.697s98.664-20.805,133.578-55.938
			c19.756-19.879,35.07-52.184,18.513-74.796C2255.003,445.619,2270.201,412.01,2266.196,381.396z"/>
	</g>
	<g>
		<path style="fill:#D7FBFF;" d="M1718.793,409.764c1.146-4.148,1.972-8.395,2.429-12.713
			C1720.072,401.227,1719.276,405.479,1718.793,409.764z"/>
		<path style="fill:#D7FBFF;" d="M2219.314,309.862c5.656,17.238,3.1,37.211-10.41,48.897c-4.381,3.789-9.629,6.544-13.685,10.679
			c-5.918,6.034-8.739,14.4-13.559,21.343c-7.36,10.605-20.286,17.744-33.104,16.21c-12.416-1.487-23.6-12.237-24.071-24.641
			c0.638,35.561-31.301,67.396-66.821,70.643c-35.924,3.283-71.455-19.549-87.899-51.656c13.779,43.257-14.7,95.146-58.591,106.75
			c-18.163,4.802-40.897,1.502-50.228-14.805c-29.836,21.895-73.596,22.55-104.074,1.559c-26.911-18.534-41.734-52.757-38.08-85.077
			c-10.425,37.694-47.93,67.169-87.376,66.295c-15.807-0.351-32.026-5.359-43.269-16.475c-11.243-11.116-16.418-28.952-10.15-43.467
			c-9.368,5.149-19.473,10.262-30.138,9.536s-21.483-9.763-20.079-20.36c-23.078,34.225-60.503,57.037-100.52,65.683
			c-30.197,6.525-76.036,7.459-103.428-11.242c-1.53-0.289-3.04-0.592-4.525-0.908c63.372,44.689,155.069,44.35,218.108-0.807
			c0.006,34.431,24.653,67.42,57.669,77.19c33.017,9.769,71.646-4.498,90.386-33.383c1.246,27.046,20.317,51.027,44.108,63.951
			c23.791,12.924,51.654,16.27,78.729,16.044c28.075-0.235,56.118-4.062,83.229-11.358c20.484-5.513,42.976-15.534,49.209-35.811
			c35.238,34.808,84.562,54.927,134.092,54.697c49.53-0.229,98.664-20.805,133.578-55.938c19.756-19.879,35.07-52.184,18.513-74.796
			c28.074-12.848,43.272-46.457,39.268-77.07C2262.383,352.386,2243.525,326.688,2219.314,309.862z"/>
		<path style="fill:#D7FBFF;" d="M2124.486,382.351c-0.008-0.403,0.004-0.805-0.012-1.21
			C2124.467,381.546,2124.471,381.949,2124.486,382.351z"/>
	</g>
	<path style="fill:#D7FBFF;" d="M1623.479,344.491c13.017-20.855,42.395-29.575,64.681-19.197
		c-4.267-18.513,3.623-39.238,19.122-50.226c15.499-10.988,37.667-11.574,53.724-1.42c16.057,10.154,25.032,30.433,21.749,49.146
		c-5.396-17.291-26.454-27.822-43.525-21.767c-17.071,6.055-26.787,27.501-20.082,44.328c-18.84-11.371-45.584-9.641-60.772,6.283
		c-15.186,15.924-14.368,45.245,3.393,58.236c-17.243,0.84-31.594,1.418-39.988-15.219
		C1613.981,379.197,1614.252,359.277,1623.479,344.491z"/>
	<path style="fill:#D7FBFF;" d="M1831.04,344.478c16.276-30.056,51.033-45.696,84.83-50.799
		c25.509-3.852,56.622-0.087,68.887,22.609c17.31-11.446,41.463-11.449,58.776-0.008c17.313,11.441,26.779,33.662,23.037,54.073
		c-7.813-13.471-22.618-22.62-38.162-23.582c-15.543-0.963-31.363,6.289-40.78,18.693c-10.159-29.746-47.815-41.825-78.603-35.481
		c-18.771,3.868-37.229,13.716-46.886,30.271c-9.657,16.554-7.905,40.329,7.111,52.237c-11.946-9.475-30.067-4.175-39.647-17.069
		C1819.296,381.547,1823.486,358.429,1831.04,344.478z"/>
	<path style="fill:#D7FBFF;" d="M1867.433,232.526c7.43-4.014,16.919-3.919,24.267,0.243c7.347,4.162,12.308,12.252,12.685,20.688
		c6.021-8.057,6.067-20.066,0.107-28.168c-5.96-8.103-17.438-11.636-26.922-8.288c-6.989-14.749-22.591-24.733-38.868-25.933
		c-16.277-1.199-32.732,6.008-43.707,18.089c-7.928,8.728-14.234,22.869-8.379,34.167c6.621-15.429,18.063-29.701,34.931-33.385
		C1837.951,206.355,1867.248,210.594,1867.433,232.526z"/>
</g>
<g>
	<path style="fill:#FFFFFF;" d="M3186.025,247.246c-16.819-10.605-37.603-12.333-57.477-12.972
		c-25.775-0.829-54.286,0.722-72.926,18.545c-10.298-29.353-41.278-45.866-70.933-55.263
		c-66.729-21.145-140.308-20.018-206.357,3.162c-16.204-26.991-56.083-36.149-82.44-18.932c-9.482-21.863-43.57-27.229-59.312-9.336
		c-34.397-32.968-83.525-49.952-130.939-45.266c-47.413,4.686-92.267,30.958-119.545,70.021
		c-19.526-4.24-41.146,3.368-53.715,18.901c-12.567,15.533-15.494,52.267-7.272,70.477h888.084
		C3209.93,270.534,3199.879,255.98,3186.025,247.246z"/>
	<path style="fill:#D7FBFF;" d="M3064.234,275.573c-14.68-12.288-37.193-14.168-53.708-4.485
		c-33.708-35.816-83.517-55.869-132.639-53.397c-32.101,1.615-67.335,15.981-78.283,46.2c-16.753-23.846-41.841-43.285-70.754-46.94
		c-28.912-3.656-60.937,11.732-70.817,39.149c-10.918-7.834-22.206-15.839-35.284-18.926c-13.077-3.087-28.544-0.069-36.469,10.782
		c-3.346-15.779-28.735-20.174-37.19-6.438c-15.733-31.174-51.061-51.314-85.901-48.973c-34.841,2.342-67.155,27.027-78.575,60.027
		c-16.205-13.958-42.289-14.72-59.281-1.73c-1.703,1.303-3.264,2.633-4.709,3.982c-0.616,11.92,0.831,23.667,4.484,31.758h888.084
		c-0.232-1.143-0.509-2.274-0.809-3.4c-27.133-13.455-56.983-21.437-87.223-23.182
		C3103.676,258.761,3080.342,261.3,3064.234,275.573z"/>
</g>
<g>
	<path style="fill:#FFFFFF;" d="M2342.746,646.837c16.265-8.122,36.73-7.12,52.124,2.551c-7.819-28.158,16.699-57.746,45.306-63.724
		c28.605-5.979,58.164,6.121,82.031,22.986c-26.662-27.173-33.652-71.692-16.603-105.729c17.05-34.037,56.892-55.097,94.619-50.015
		c4.562,0.615,9.832,1.368,13.212-1.756c3.028-2.798,3.117-7.448,3.317-11.567c1.62-33.306,27.538-64.335,60.319-70.444
		s68.877,14.505,78.95,46.293c0.926-22.972,15.569-43.864,34.601-56.763c19.03-12.9,41.993-18.754,64.787-21.75
		c43.767-5.75,91.767-0.481,125.52,27.967c33.753,28.448,45.53,84.852,15.812,117.491c5.021-9.653,18.205-14.032,28.005-9.302
		c9.799,4.73,14.572,17.776,10.139,27.713c14.583-6.603,33.236-2.684,43.929,9.23c10.692,11.914,12.578,30.881,4.442,44.667
		c13.813-8.343,32.42-7.958,45.876,0.95c13.457,8.907,21.08,25.885,18.797,41.86c7.304-38.627,55.2-60.873,92.216-47.637
		c37.017,13.235,59.771,53.867,59.569,93.177c17.063-7.125,33.73,14.075,33.584,32.565c-0.231,29.348-24.311,54.935-52.448,63.279
		c-28.137,8.345-58.901,2.05-85.466-10.425c-38.849,33.137-92.222,48.588-142.765,41.331
		c-50.544-7.257-97.412-37.102-125.368-79.831c-20.911,30.879-57.769,50.294-95.062,50.073
		c-31.969,41.258-94.586,55.019-140.908,30.965c-5.541,15.736-22.331,24.677-38.588,28.422
		c-57.304,13.202-121.421-27.362-134.034-84.799c-17.454,49.234-63.401,89.957-115.615,91.512
		c-39.626,1.18-79.732-24.584-94.808-61.333C2294.211,710.604,2308.223,664.077,2342.746,646.837z"/>
	<path style="fill:#D7FBFF;" d="M3299.712,642.69c0.202-39.311-22.552-79.942-59.568-93.178c-7.761-2.774-15.998-3.984-24.24-3.816
		c13.768,6.356,26.436,14.431,35.782,26.217c15.934,20.091,16.513,54.521-5.484,67.7c-9.851,5.902-24.322,5.56-31.222-3.619
		c3.577,20.176-7.153,42.072-25.289,51.608c-18.136,9.536-42.257,5.965-56.853-8.417c-12.355,20.36-36.621,33.526-60.258,30.608
		c-23.637-2.918-44.652-23.049-46.555-46.789c-1.902-23.74,17.317-47.799,41.086-49.297c-11.848,1.15-24.032-6.125-28.639-17.1
		c-4.607-10.975-1.267-24.768,7.853-32.419c6.653-5.582,15.412-7.757,23.638-10.542c5.675-1.921,11.219-4.217,16.604-6.84
		c3.903-12.587,1.093-27.275-7.756-37.135c-10.692-11.914-29.346-15.833-43.929-9.23c4.434-9.937-0.34-22.983-10.139-27.713
		c-7.537-3.638-17.063-1.872-23.351,3.523c19.131-26.835,14.751-65.789-4.474-93.902c0.66,8.417-0.647,16.958-4.17,24.658
		c-9.494,20.758-34.118,33.37-56.512,28.944c10.43,7.748,12.068,23.601,6.62,35.396c-5.449,11.795-16.332,20.148-27.571,26.665
		c-24.721,14.335-53.221,22.082-81.796,22.233c18.699,6.564,39.009,6.378,58.503,9.944c19.493,3.566,39.926,12.417,48.652,30.208
		c12.513,25.511-4.693,55.802-25.306,75.359c-17.896,16.979-44.342,31.203-66.336,20.033c12.022,5.742,13.425,23.569,6.187,34.755
		c-7.236,11.186-19.996,17.287-32.106,22.841c-9.989,4.582-20.363,9.253-31.354,9.314c-10.99,0.061-22.821-5.814-26.101-16.303
		c-15.112,12.274-32.026,23.727-51.339,26.191c-19.313,2.465-41.332-6.718-47.828-25.071c-22.163,18.708-58.604,17.241-79.191-3.188
		c-20.587-20.428-22.337-56.857-3.802-79.165c-14.035,5.307-30.117,4.969-43.917-0.924c-6.573,25.608-34.366,43.806-60.467,39.592
		c0.92,19.619-11.582,39.165-29.778,46.556s-40.788,2.1-53.81-12.603c-5.864,21.969-31.298,36.114-53.195,31.209
		c-19.65-4.402-33.582-23.825-30.058-43.726c1.521-8.589,5.76-15.794,10.199-22.918c-19.14,21.948-25.041,55.694-14.211,82.095
		c15.075,36.748,55.182,62.513,94.809,61.332c52.213-1.555,98.16-42.277,115.614-91.511c12.614,57.436,76.73,98.001,134.034,84.799
		c16.258-3.746,33.047-12.686,38.588-28.423c46.322,24.054,108.939,10.294,140.908-30.964c37.293,0.221,74.151-19.194,95.062-50.073
		c27.956,42.729,74.824,72.574,125.368,79.832c50.543,7.257,103.916-8.194,142.765-41.332c26.565,12.476,57.329,18.77,85.466,10.425
		c28.138-8.345,52.217-33.931,52.448-63.279C3333.442,656.765,3316.775,635.565,3299.712,642.69z"/>
	<path style="fill:#D7FBFF;" d="M2619.625,587.285c8.589-20.132,33.156-33.527,53.564-25.615
		c-1.441-22.326,17.5-43.966,39.82-45.495c22.32-1.529,44.034,17.327,45.65,39.641c-7.477-15.472-27.095-23.859-43.445-18.575
		c-16.351,5.284-27.35,23.566-24.357,40.487c-21.318-6.646-46.34,6.865-53.846,27.895c-7.742,21.691,2.77,45.032,20.609,57.992
		C2622.815,658.761,2606.017,619.179,2619.625,587.285z"/>
	<path style="fill:#D7FBFF;" d="M2782.975,464.603c17.124,9.727,29.729,28.319,29.389,48.01c6.542-15.987,4.409-35.23-5.475-49.397
		c-9.885-14.167-27.209-22.811-44.474-22.189c-15.456,0.557-44.618,7.586-53.993,20.818
		C2735.249,459.187,2756.501,449.565,2782.975,464.603z"/>
</g>
<g>
	<path style="fill:#FFFFFF;" d="M207.233,194.826c-10.427,0.53-19.754,6.378-28.328,12.337
		c-23.445,16.296-46.377,36.296-55.245,63.437c-8.867,27.141,2.002,62.404,29.081,71.459c-24.139,5.478-36.433,32.838-39.076,57.449
		c-3.208,29.874,2.367,60.06,10.784,88.903c7.076,24.246,16.419,48.335,32.254,68.013c29.251,36.348,78.279,53.233,124.869,50.75
		c46.59-2.482,90.845-22.34,129.387-48.631c0.068,23.306,18.962,42.261,38.853,54.407c70.14,42.833,169.508,29.495,225.87-30.317
		c-1.61,7.483,6.66,13.186,13.956,15.5c34.04,10.794,74.438-3.694,93.86-33.66c19.422-29.967,16.148-72.759-7.606-99.423
		c-32.535-36.52-88.483-36.916-137.334-34.513c14.667-18.064,11.315-46.178-2.835-64.649c-14.15-18.472-36.611-28.743-59.119-34.642
		c-37.35-9.787-76.509-9.387-115.117-8.923c23.249-7.256,34.679-36.559,27.332-59.779c-7.347-23.22-29.154-39.646-52.505-46.565
		c-23.351-6.919-48.267-5.751-72.523-3.567c27.962-2.518,30.491-47.577,22.475-65.702c-8.658-19.576-28.306-43.294-49.688-49.096
		C279.999,82.261,198.525,131.386,207.233,194.826z"/>
	<g>
		<path style="fill:#D7FBFF;" d="M522.188,463.2c-0.535,0.184-1.064,0.395-1.577,0.662
			C521.153,463.668,521.674,463.439,522.188,463.2z"/>
		<path style="fill:#D7FBFF;" d="M638.56,430.536c14.668-18.064,11.315-46.178-2.835-64.649
			c-14.15-18.472-36.61-28.743-59.119-34.642c-37.35-9.787-76.508-9.387-115.117-8.923c23.249-7.256,34.679-36.559,27.332-59.779
			c-7.348-23.22-29.154-39.646-52.505-46.565c-23.351-6.919-48.267-5.751-72.523-3.568c27.962-2.517,30.491-47.576,22.475-65.702
			c-7.985-18.056-25.323-39.624-44.744-47.418c4.256,6.234,9.303,12.388,11.601,17.634c6.847,15.629,9.216,32.82,4.868,49.517
			c-7.84,30.11-32.985,53.577-61.615,65.76c13.925-6.346,31.965-1.796,41.213,10.396c9.249,12.192,8.769,30.791-1.096,42.491
			c28.887-16.101,70.48-4.611,85.063,25.071c11.685,23.782,2.225,55.118-18.597,70.342c40.271-14.037,89.078-2.892,117.821,29.018
			c7.186,7.978,13.357,17.518,14.371,28.207c0.959,10.117-3.873,21.244-12.964,25.474c6.423-2.206,14.212,1.447,17.684,7.458
			c3.761,6.513,3.251,14.78,0.609,21.821c-8.981,23.935-39.761,33.872-64.384,26.997c-24.623-6.875-43.733-26.193-59.297-46.474
			c-17.616,28.001-49.248,46.673-82.276,48.564c-33.027,1.891-66.584-13.047-87.281-38.855c1.093,9.634-6.009,18.728-14.75,22.924
			c-8.741,4.196-18.788,4.509-28.483,4.413c-23.501-0.234-47.7-2.617-68.499-13.561c-3.713-1.954-7.295-4.238-10.68-6.798
			c7.031,23.812,16.316,47.402,31.873,66.733c29.251,36.348,78.279,53.233,124.869,50.75c46.59-2.483,90.845-22.34,129.387-48.631
			c0.068,23.306,18.962,42.261,38.853,54.407c70.14,42.833,169.508,29.495,225.87-30.317c-1.61,7.483,6.66,13.186,13.956,15.5
			c34.04,10.794,74.438-3.694,93.86-33.66c19.422-29.967,16.148-72.759-7.606-99.423C743.359,428.529,687.41,428.133,638.56,430.536
			z"/>
		<path style="fill:#D7FBFF;" d="M402.96,380.5c-6.034,2.103-11.88,4.758-17.434,8.007
			C391.942,387.078,397.795,384.277,402.96,380.5z"/>
	</g>
</g>
<g>
	<path style="fill:#FFFFFF;" d="M304.398,788.732c14.6-35.453,64.78-50.179,96.223-28.238
		c33.64-20.125,81.445-11.876,106.394,18.359c4.813-20.203,21.012-35.712,38.182-47.397c47.493-32.322,108.56-43.957,164.61-31.363
		c35.235,7.917,71.47,28.757,81.17,63.543c16.108-26.669,53.975-27.924,84.792-23.335c11.129,1.658,22.574,3.805,31.904,10.095
		c9.33,6.29,16.04,17.786,13.431,28.73c32.259-25.751,87.232-13.253,105.188,23.913c32.563-22.596,73.339-33.07,112.761-28.965
		c21.91,2.282,44.21,9.452,59.737,25.079c15.527,15.626,22.46,41.018,12.236,60.53c13.754,35.454-7.672,80.318-43.891,91.907
		c-36.219,11.588-79.709-12.506-89.091-49.358c-0.597,25.393-18.442,48.021-40.578,60.479
		c-22.136,12.458-48.031,16.308-73.372,18.046c-30.925,2.122-66.038-0.302-86.428-23.649c-4.577,39.423-32.991,75.115-70.385,88.412
		c-37.394,13.298-81.963,3.559-110.402-24.124c-13.461,24.772-50.114,25.788-75.17,12.862c-28.689-14.8-49.753-43.554-55.215-75.37
		c-31.967,24.697-84.566,15.062-105.704-19.362c-25.279,29.707-70.503,29.333-109.35,25.802
		c-11.854-1.078-24.268-2.417-34.108-9.116c-9.84-6.699-15.856-20.604-9.878-30.897c-45.3,30.811-105.35,38.766-157.11,20.812
		c-24.255-8.413-48.563-24.739-54.479-49.72c-7.012-29.607,16.797-59.985,47.087-59.957c25.882,0.024,37.112,28.199,45.936-0.946
		c8.236-27.205,1.02-48.545,31.647-64.927C248.086,755.841,285.341,763.981,304.398,788.732z"/>
	<g>
		<path style="fill:#D7FBFF;" d="M824.344,830.955c-1.625,5.728-2.119,11.698-1.625,17.6
			C824.28,842.839,824.874,836.869,824.344,830.955z"/>
		<path style="fill:#D7FBFF;" d="M534.074,870.398c3.042-3.384,5.572-7.216,7.417-11.408
			C538.2,862.257,535.743,866.162,534.074,870.398z"/>
		<path style="fill:#D7FBFF;" d="M600.869,901.683c0.392-0.771,0.764-1.553,1.093-2.36
			C601.572,900.102,601.211,900.89,600.869,901.683z"/>
		<path style="fill:#D7FBFF;" d="M1063.873,849.266c-0.608-1.877-1.372-3.723-2.303-5.525
			C1062.2,845.655,1062.981,847.493,1063.873,849.266z"/>
		<path style="fill:#D7FBFF;" d="M1198.771,799.155c-14.009-14.099-33.532-21.299-53.308-24.25
			c9.432,11.357,15.503,25.381,16.186,40.102c1.165,25.119-14.902,50.801-38.873,58.4c-22.051,6.99-48.663-3.777-58.902-24.141
			c9.281,28.635-17.93,64.385-48.614,60.307c-19.006,14.561-42.454,26.211-66.114,22.542c-23.66-3.67-44.695-28.318-37.067-51.013
			c-15.908,16.67-43.482,20.69-63.488,9.255c-14.836-8.48-24.453-24.861-25.871-41.801c-3.443,12.611-11.596,23.988-22.782,30.806
			c-16.256,9.908-38.134,9.71-54.208-0.49c0.422,30.071-9.885,61.12-31.922,81.584c-22.037,20.465-56.546,28.22-83.519,14.919
			c-26.191-12.916-40.911-47.098-29.419-73.692c-9.438,18.576-36.333,26.158-53.83,14.487
			c-14.365-9.581-19.182-29.997-12.965-45.772c-10.884,12.111-28.316,18.48-44.343,15.042c-20.505-4.398-36.525-24.38-36.359-45.351
			c-3.029,35.593-28.017,71.09-63.303,76.657c-35.286,5.566-73.427-29.72-63.106-63.919c-12.095,14.461-39.618,9.597-46.023-8.134
			c-27.588,32.513-59.018,65.76-100.593,75.233c-31.72,7.228-69.531-6.807-85.699-32.804c0.087,3.081,0.464,6.187,1.198,9.285
			c5.917,24.981,30.225,41.307,54.48,49.721c51.76,17.954,111.81,9.999,157.11-20.813c-5.978,10.294,0.038,24.199,9.878,30.897
			c9.839,6.699,22.253,8.038,34.108,9.116c38.847,3.532,84.071,3.905,109.35-25.802c21.138,34.424,73.737,44.059,105.705,19.362
			c5.461,31.816,26.526,60.57,55.214,75.37c25.056,12.926,61.709,11.909,75.17-12.862c28.44,27.683,73.008,37.422,110.403,24.124
			c37.394-13.297,65.808-48.988,70.385-88.412c20.39,23.347,55.503,25.771,86.428,23.65c25.341-1.739,51.236-5.589,73.372-18.047
			s39.981-35.085,40.578-60.479c9.381,36.852,52.872,60.946,89.09,49.358c36.219-11.589,57.645-56.454,43.892-91.907
			C1221.231,840.172,1214.298,814.781,1198.771,799.155z"/>
	</g>
	<path style="fill:#D7FBFF;" d="M603.063,805.352c18.634-15.854,48.349-18.432,67.794-3.585c-0.972-7.381,3.578-14.736,9.899-18.669
		c6.322-3.933,14.081-4.915,21.517-4.541c9.012,0.452,18.227,2.929,25.081,8.797c6.854,5.868,10.831,15.587,8.224,24.225
		c10.05-10.065,4.881-27.414-3.328-39.029c-9.333-13.203-22.927-24.642-39.017-26.228c-16.089-1.586-33.851,9.991-34.53,26.145
		c-0.229-5.296-4.752-9.64-9.79-11.289c-5.038-1.648-10.502-1.148-15.759-0.468c-21.044,2.723-43.29,9.007-56.548,25.574
		c-8.849,11.058-12.556,25.435-13.701,39.551c-2.118,26.113,5.454,55.112,27.042,69.957c-10.08-6.932-10.556-33.834-9.521-44.501
		C582.116,833.878,589.572,816.829,603.063,805.352z"/>
	<path style="fill:#D7FBFF;" d="M917.468,825.646c14.131,0.204,27.843,8.669,34.357,21.211c6.136-9.667,19.751-13.175,30.381-8.921
		c10.631,4.253,17.86,15.139,19.163,26.514c1.303,11.375-2.801,22.965-9.753,32.063c7.294-10.023,1.041-25.945-10.503-30.462
		c-11.544-4.517-25.375,0.986-32.938,10.808c2.563-16.083-11.391-32.759-27.674-33.072c-16.283-0.313-30.868,15.813-28.926,31.983
		c-1.371-11.417-14.496-18.745-8.093-32.456C888.711,832.114,906.09,825.482,917.468,825.646z"/>
	<path style="fill:#D7FBFF;" d="M376.809,852.293c4.489-9.136,14.188-16.943,24.145-14.827c9.429,2.004,14.922,11.585,19.231,20.208
		c2.351-7.958,2.275-16.865-1.514-24.247c-3.789-7.382-11.66-12.864-19.953-12.574c-7.58,0.265-14.322,5.061-19.324,10.763
		c-3.464-9.186-11.95-15.85-21.257-18.975c-9.307-3.125-19.389-3.099-29.148-2.032c-8.748,0.956-18.117,3.123-23.775,9.864
		c-3.672,4.377-10.724,31.766-2.039,34.346c4.371,1.299,10.601-11.684,12.822-14.336c7.925-9.464,15.088-15.454,28.27-14.227
		C351.179,826.901,382.315,841.087,376.809,852.293z"/>
</g>
<g>
	<path style="fill:#FFFFFF;" d="M1181.727,981.273c32.093-16.81,116.148-14.518,116.148-14.518
		c8.809-8.741,10.578-30.424,14.119-42.319c11.612-39.01,59.687-62.535,97.615-47.766c-0.584-63.053,68.046-116.621,129.069-100.742
		c3.527-16.882,20.142-28.511,37.105-31.624c16.964-3.112,34.354,0.547,51.212,4.193c0.307-51.917,54.607-87.264,105.485-97.604
		c52.954-10.762,109.955-4.963,157.5,20.717c47.546,25.68,84.535,72.069,94.348,125.208c55.979-25.075,121.279-28.635,179.652-9.793
		c41.385,13.358,82.764,43.04,88.636,86.129c43.389-11.573,93.147,21.135,99.729,65.555c27.747-8.819,56.733-16.3,85.685-13.222
		c28.951,3.077,58.117,18.664,70.175,45.165c28.15-3.965,57.927,13.044,68.811,39.306c10.276,34.74,0,62.777-80.959,34.715
		c-12.436-4.31-24.192,10.373-36.288,15.56c-36.666,15.723-73.553,31.519-112.357,40.782
		c-72.154,17.225-149.763,10.755-218.07-18.178c-9.486-4.019-18.914-8.493-29.043-10.376c-19.01-3.533-38.333,2.353-57.561,4.39
		c-19.228,2.038-41.576-1.349-52.259-17.465c-41.9,29.27-96.981,38.825-146.293,25.381
		c-115.275,73.963-274.453,72.272-388.132-4.122c-7.129-4.791-14.921-10.078-23.47-9.235c-6.577,0.648-12.167,4.828-17.794,8.294
		c-41.282,25.424-101.716,11.982-128.331-28.542c-27.395,19.212-61.635,28.438-94.974,25.593
		c-15.975-1.363-33.486-5.032-43.769-17.334C1123.271,1030.178,1153.555,996.03,1181.727,981.273z"/>
	<path style="fill:#D7FBFF;" d="M2507.107,969.168c-4.097-9.003-10.172-16.743-17.538-23.165c2.985,9.318,3.696,19.149,1.216,28.708
		c-6.027,23.229-35.893,39.132-55.902,25.882c-6.548-4.336-11.933-11.307-19.716-12.359c-5.468-0.739-10.815,1.698-15.768,4.132
		c-14.611,7.181-29.619,15.056-45.895,15.457c-16.275,0.401-34.159-9.452-36.696-25.533c-3.232-20.489,16.288-32.116,34.363-45.531
		c-6.859-44.182-56.416-76.623-99.652-65.09c-5.873-43.088-47.252-72.771-88.637-86.129c-25.762-8.315-52.874-12.261-79.938-11.926
		c-0.783,1.074-1.542,2.183-2.245,3.368c39.703,0.72,77.947,25.938,94.248,62.147c16.301,36.209,9.825,81.56-15.959,111.76
		c-35.006-41.87-104.275-49.149-147.221-15.471c6.643-18.815-11.512-37.396-29.822-45.325
		c-18.309-7.929-39.761-11.861-52.544-27.182c30.181-9.167,46.52-37.28,53.498-69.223c-10.267-52.449-46.962-98.15-94.015-123.563
		c-21.407-11.562-44.732-19.081-68.74-22.886c29.945,27.702,51.839,64.198,60.707,104.051c6.353,28.549,6.175,59.417-6.078,85.974
		c-12.253,26.557-38.064,47.832-67.264,49.513c33.219,26.2,46.366,75.024,30.794,114.362
		c-15.572,39.338-58.575,65.935-100.727,62.299c-14.157-1.222-31.108-9.608-30.034-23.777
		c-27.958,24.918-67.058,39.405-103.575,31.097c-36.517-8.308-67.379-42.982-64.693-80.335
		c-12.271,13.686-33.741,18.127-50.435,10.433c-16.694-7.694-27.264-26.902-24.831-45.122c-17.1,31.681-35.876,65.012-67.422,82.36
		c-31.547,17.347-79.443,9.798-92.159-23.884c-14.864,7.759-34.325,5.607-47.136-5.21c-28.859,27.806-63.208,30.408-100.708,35.037
		c-5.744,0.709-11.34,1.494-16.741,2.583c1.455,3.818,3.672,7.606,6.772,11.316c10.283,12.302,27.794,15.97,43.77,17.333
		c33.339,2.847,67.579-6.381,94.974-25.593c26.614,40.525,87.048,53.967,128.331,28.542c5.626-3.466,11.217-7.646,17.794-8.294
		c8.548-0.843,16.339,4.444,23.469,9.236c113.679,76.394,272.858,78.085,388.133,4.121c49.311,13.445,104.393,3.889,146.293-25.381
		c10.682,16.116,33.031,19.503,52.259,17.466c19.228-2.038,38.55-7.924,57.56-4.391c10.13,1.883,19.557,6.358,29.044,10.376
		c68.308,28.933,145.915,35.402,218.07,18.178c38.805-9.264,75.691-25.06,112.357-40.781c12.096-5.187,23.853-19.87,36.287-15.56
		c80.96,28.062,91.236,0.025,80.96-34.716C2565.033,982.212,2535.258,965.203,2507.107,969.168z"/>
	<path style="fill:#D7FBFF;" d="M1574.621,873.922c10.422-12.926,28.002-17.335,44.438-19.689
		c13.187-1.889,26.722-2.946,39.755-0.19c13.034,2.756,25.639,9.762,32.697,21.06c0.915-4.422-1.576-8.76-3.967-12.59
		c-8.961-14.359-18.726-29.454-34.016-36.713c-10.005-4.75-21.391-5.61-32.466-5.603c-12.536,0.009-25.472,1.141-36.581,6.949
		c-11.109,5.807-20.035,17.233-19.645,29.763c-1.402-3.604-5.879-4.746-9.727-5.135c-25.697-2.6-53.03,7.341-68.79,27.804
		c-15.225,19.77-18.486,51.266-2.893,71.851c-5.621-23.436,3.83-33.791,18.707-50.591c9.25-10.444,19.554-18.771,32.824-23.585
		c6.561-2.38,13.457-3.854,20.417-4.372C1557.721,872.705,1574.039,874.644,1574.621,873.922z"/>
	<path style="fill:#D7FBFF;" d="M1652.69,921.639c11.873-9.85,28.77-13.282,43.545-8.844c14.775,4.438,26.985,16.613,31.464,31.375
		c15.145-4.579,33.1,0.248,42.768,12.772c9.67,12.523,9.331,32.195-1.794,43.445c9.504-8.55,17.019-19.763,19.283-32.345
		c2.263-12.582-1.323-26.523-10.79-35.114c-9.468-8.591-24.963-10.521-35.318-3.026c1.926-8.348-5.79-15.673-13.207-19.961
		c-13.081-7.564-27.878-12.141-42.944-13.282c-5.47-0.415-11.147-0.349-16.196,1.795c-5.79,2.459-10.162,7.406-13.623,12.659
		c-6.472,9.822-10.423,22.566-5.705,33.341c-3.594-11.724,0.935-25.481,10.79-32.779L1652.69,921.639z"/>
	<path style="fill:#FFFFFF;" d="M1924.129,1015.942c4.515-16.86,17.979-31.04,34.583-36.42c16.604-5.38,35.826-1.793,49.371,9.214
		c4.751-11.091,16.463-18.822,28.529-18.832c12.065-0.01,23.79,7.702,28.56,18.785c0.771-14.267-8.609-28.502-22.022-33.425
		c-13.413-4.922-29.774-0.132-38.415,11.246c0.388-3.273-2.678-5.85-5.546-7.476c-22.603-12.813-54.111-6.746-70.342,13.544
		c-16.229,20.29-15.228,52.361,2.236,71.599c-5.481-12.163-5.59-26.635-0.291-38.879L1924.129,1015.942z"/>
	<path style="fill:#FFFFFF;" d="M2168.829,969.853c5.795-6.579,14.022-10.622,22.493-12.881c9.577-2.554,20.075-2.941,29.152,1.039
		c9.076,3.981,16.324,12.961,16.314,22.873c6.531-8.108,19.094-9.973,28.396-5.296c9.302,4.677,15.152,14.86,16.025,25.235
		c0.873,10.375-2.771,20.787-8.646,29.383c-6.887,10.075-16.888,17.991-28.274,22.381c14.397-7.273,23.641-23.671,22.41-39.754
		c-0.292-3.823-1.222-7.8-3.82-10.62c-4.843-5.254-13.237-4.538-20.205-2.953c-9.871,2.246-20.715,6.455-24.456,15.862
		c6.277-10.368,1.407-25.437-9.298-31.12c-10.705-5.683-25.111-1.982-32.676,7.488c-7.564,9.47-8.295,23.484-2.82,34.298
		C2164.952,1009.049,2153.883,986.819,2168.829,969.853z"/>
</g>
<g>
	<path style="fill:#FFFFFF;" d="M2839.567,888.041c-30.345,28.928-42.013,72.522-29.558,110.424
		c-29.031-5.329-60.941,3.86-81.181,23.379c-20.239,19.519-28.093,48.676-19.979,74.178c-33.414-0.568-66.985,5.174-97.883,16.741
		c-12.645,4.734-25.147,10.64-34.232,19.838c-15.351,15.541-18.506,38.377-13.78,58.602c4.726,20.226,16.304,38.523,27.722,56.451
		c-35.311-5.287-69.237,13.048-99.339,30.602c-17.06,9.948-35.19,21.065-42.15,38.178c-6.122,15.053-2.252,31.816,3.686,46.868
		c16.063,40.725,48.523,77.354,92.745,94.604c44.221,17.251,100.23,12.272,135.725-17.278
		c86.085,53.173,214.044,43.273,289.396-22.389c1.82,14.677,17.326,24.541,32.063,31.127
		c37.116,16.587,78.321,24.805,119.606,29.012c34.354,3.5,70.076,4.184,102.613-6.505c46.12-15.15,81.888-54.838,85.654-98.619
		c3.767-43.78-26.501-88.762-72.495-103.755c20.793,5.445,39.021-19.14,32.632-37.667c-6.389-18.526-26.906-29.844-46.65-37.795
		c-47.568-19.155-101.056-28.536-152.667-20.864c21.621-11.119,29.808-37.288,22.575-58.554
		c-7.232-21.266-27.002-37.607-49.217-47.512c-22.215-9.905-46.951-14.241-71.346-18.476c26.611-13.974,49.74-36.227,54.904-63.412
		c5.162-27.183-12.773-58.364-42.855-64.034c17.585,3.315,26.242-23.051,24.832-33.717c-2.451-18.539-24.112-34.879-44.064-38.267
		C2924.881,842.166,2867.791,861.135,2839.567,888.041z"/>
	<g>
		<path style="fill:#D7FBFF;" d="M3238.181,1269.498c20.793,5.445,39.021-19.14,32.632-37.667
			c-5.985-17.355-24.366-28.383-42.897-36.243c6.058,10.007,9.764,21.421,10.31,33.119c1.259,27.058-14.436,54.182-38.521,66.573
			c1.736,19.105-14.155,36.651-32.651,41.742c-18.497,5.091-38.422,0.071-55.688-8.288c-28.102-13.604-53.558-43.726-46.92-72.99
			c-9.813,26.399-39.035,44.745-67.146,40.96c-10.759-29.332-1.416-63.59,18.729-87.472c16.368-19.405,38.895-32.612,63.021-40.963
			c15.891-12.759,21.341-35.074,15.023-53.651c-7.232-21.266-27.002-37.607-49.217-47.512
			c-22.215-9.905-46.951-14.241-71.346-18.476c26.611-13.974,49.74-36.227,54.903-63.412c4.181-22.006-6.782-46.627-27.068-58.217
			c-7.329,9.426-17.272,17.182-27.702,23.149c24.781,9.735,28.156,46.607,12.257,67.963c-15.899,21.357-43.276,30.343-69.241,36.233
			c32.887-2.372,66.43,15.157,83.258,43.512c9.906,16.689,13.987,38.129,5.535,55.599s-31.935,27.701-48.627,17.801
			c-4.186,57.697-38.071,115.686-92.299,135.831c-54.227,20.146-125.344-9.476-138.717-65.757
			c4.796,29.536,0.999,63.299-21.157,83.412c-22.155,20.113-65.618,14.913-73.753-13.884c-3.165,45.141-55.101,79.672-97.951,65.127
			c-33.042-11.217-41.771-65.057-66.946-80.935c-7.321,6.068-13.406,13.005-16.812,21.379c-6.123,15.053-2.253,31.816,3.685,46.868
			c16.063,40.725,48.523,77.354,92.745,94.604c44.221,17.251,100.23,12.272,135.725-17.278
			c86.085,53.173,214.044,43.273,289.396-22.389c1.82,14.677,17.326,24.541,32.063,31.127
			c37.115,16.587,78.321,24.805,119.606,29.012c34.354,3.5,70.076,4.184,102.613-6.505c46.119-15.15,81.887-54.838,85.654-98.619
			C3314.442,1329.473,3284.175,1284.491,3238.181,1269.498z"/>
		<path style="fill:#D7FBFF;" d="M3064.443,1255.744c0.77-2.068,1.434-4.18,1.954-6.34
			C3065.568,1251.509,3064.925,1253.624,3064.443,1255.744z"/>
		<path style="fill:#D7FBFF;" d="M2983.699,857.651c2.439,0.292,4.762,0.903,6.958,1.773c-1.392-0.967-2.824-1.883-4.292-2.74
			C2985.473,856.972,2984.582,857.285,2983.699,857.651z"/>
	</g>
	<path style="fill:#D7FBFF;" d="M2702.653,1177.098c17.093-21.173,47.354-30.676,73.482-23.076
		c2.382-8.989,12.287-13.689,21.405-15.522c14.664-2.947,30.713-1.292,43.156,7.009c12.443,8.302,20.391,23.928,17.304,38.563
		c12.426-10.637,15.512-29.948,8.927-44.921c-6.586-14.973-21.492-25.38-37.5-28.735c-16.01-3.356-32.896-0.251-47.859,6.355
		c-6.113,2.7-12.655,6.908-13.564,13.528c-7.484-4.351-16.681-4.523-25.27-3.438c-31.02,3.924-60.475,24.791-70.254,54.489
		c-9.699,28.54,3.206,66.771,32.079,78.904c-10.929-11.153-16.114-18.987-16.921-35.624
		C2686.816,1207.691,2691.952,1190.354,2702.653,1177.098z"/>
	<path style="fill:#D7FBFF;" d="M2847.775,1006.558c8.012,2.456,15.651,9.368,15.076,17.729c6.938-8.684,19.157-14.539,29.303-9.999
		c9.505,4.252,13.555,15.969,12.848,26.357c-1.137,16.699-12.613,32.257-28.231,38.274c7.942-4.651,10.101-14.962,11.364-24.078
		c0.267-1.925,0.494-4.029-0.527-5.684c-0.78-1.264-2.158-2.024-3.52-2.616c-11.538-5.018-26.35-0.772-33.479,9.595
		c3.325-6.378,1.049-14.795-4.363-19.531c-5.413-4.736-13.282-6.034-20.306-4.487c-5.222,1.149-10.224,3.859-13.428,8.14
		c-3.203,4.28-4.367,10.221-2.304,15.152c-5.223-12.482-11.967-21.806-2.036-34.343
		C2817.313,1009.527,2833.224,1002.097,2847.775,1006.558z"/>
	<path style="fill:#FFFFFF;" d="M2973.267,1346.403c17.001,0.798,34.239,5.721,47.376,16.541
		c13.137,10.819,21.535,28.104,19.125,44.952c13.443-17.92,10.951-44.805-2.853-62.449c-13.803-17.644-36.798-26.508-59.198-26.808
		c-16.199-0.218-33.151,4.052-44.855,15.253c-8.688,8.314-17.996,28.046-9.94,39.315c4.841-4.495,6.056-12.213,11.063-16.973
		C2943.717,1346.984,2960.611,1345.81,2973.267,1346.403z"/>
	<path style="fill:#FFFFFF;" d="M2596.129,1429.789c-1.46-15.248,3.948-31.024,14.457-42.169s25.939-17.47,41.247-16.906
		c2.202,0.081,4.474,0.288,6.554-0.44c1.889-0.662,3.429-2.03,5.003-3.268c13.253-10.414,32.505-12.536,47.708-5.259
		s25.626,23.604,25.826,40.458c-2.21-7.646-9.907-12.501-17.614-14.484c-19.134-4.922-41.046,5.215-49.683,22.983
		c-1.542-7.304-8.515-12.337-15.676-14.442c-14.575-4.285-31.26,1.322-41.162,12.844c-9.902,11.523-13.035,28.17-9.119,42.849
		c-10.027-8.671-14.113-23.596-9.903-36.165L2596.129,1429.789z"/>
</g>
<g>
	<path style="fill:#FFFFFF;" d="M132.957,1324.378c22.496-20.151,53.382-27.831,83.266-32.204
		c-20.257-28.339-21.801-68.821-3.761-98.62c18.039-29.799,54.624-47.2,89.124-42.39c-2.89-25.905,24.379-44.142,48.469-54.099
		c24.238-10.02,50.373-18.41,76.32-14.589c25.947,3.82,51.26,23.217,53.838,49.316c31.495-7.988,65.055-5.845,96.309,3.043
		c21.787,6.195,43.097,15.92,59.233,31.816c41.28,40.664,37.731,107.068,31.27,164.651c31.348-51.768,102.013-64.152,161.934-55.656
		c22.472,3.187,45.289,8.83,63.65,22.171c18.361,13.342,31.475,35.782,28.405,58.27c20.901-15.906,50.251-19.943,74.67-10.271
		c24.419,9.673,43.043,32.713,47.383,58.617c10.735-22.877,44.188-29.354,64.889-14.858c20.7,14.496,27.121,44.511,17.759,67.983
		c-9.362,23.473-31.938,40.082-56.39,46.468c-24.451,6.386-50.53,3.575-74.838-3.332c-0.934,21.931-17.712,40.669-37.418,50.336
		c-19.707,9.668-42.093,11.972-63.939,14.103c-46.192,4.504-94.143,8.703-137.882-6.815c-46.296-16.426-82.178-52.885-116.323-88.2
		c-23.073,39.204-62.508,68.426-106.731,79.089c-44.223,10.663-92.642,2.625-131.046-21.756
		c-21.974,30.559-60.706,48.212-98.186,44.75c-37.48-3.463-72.323-27.912-88.327-61.979
		c-36.121,35.392-101.336,34.436-136.404-1.999c-18.699-19.428-28.474-49.751-16.942-74.125
		c12.299-25.995,46.199-32.332,68.184-15.642C110.663,1384.531,97.136,1356.467,132.957,1324.378z"/>
	<path style="fill:#D7FBFF;" d="M1069.324,1504.026c24.451-6.386,47.028-22.995,56.39-46.468
		c9.362-23.473,2.941-53.487-17.759-67.983c-20.7-14.495-54.153-8.019-64.889,14.858c-4.339-25.904-22.964-48.944-47.383-58.617
		c-6.89-2.729-14.173-4.365-21.547-4.953c5.39,11.062,8.631,23.05,8.219,35.285c-0.646,19.168-11.7,38.633-29.593,45.537
		c-17.893,6.904-41.441-2.354-46.738-20.788c-4.477-15.578,3.904-31.548,7.769-47.289c2.281-9.289,2.852-18.932,1.872-28.429
		c-5.161-10.764-13.378-20.327-23.058-27.361c-15.353-11.155-33.823-16.92-52.6-20.375c1.575,3.366,2.677,6.949,3.202,10.663
		c2.808,19.858-11.255,40.686-30.724,45.502c7.792,14.781,3.334,33.931-7.634,46.536c-10.968,12.605-27.232,19.495-43.589,22.904
		c-20.464,4.266-42.512,3.519-61.34-5.562c-18.829-9.081-33.82-27.354-35.715-48.173c-0.832-9.141,0.654-17.644,3.658-25.753
		c4.262-40.601,6.2-84.729-8.331-120.72c3.849,18.631,2.333,38.4-4.902,56.012c-11.875,28.903-38.78,51.135-69.405,57.349
		c-9.246,1.876-22.197-0.321-22.95-9.726c-3.04,37.861-33.441,71.858-70.728,79.095c-37.288,7.236-78.198-12.92-95.18-46.896
		c16.566,39.294,12.126,86.752-11.439,122.292c-17.62,26.572-48.103,46.977-79.806,43.603
		c-31.703-3.375-59.326-37.307-48.782-67.396c-12.49,13.081-33.384,17.276-49.956,10.029c-16.571-7.246-27.678-25.435-26.554-43.486
		c-5.585,20.344-16.087,40.195-33.406,52.24c-17.319,12.045-42.312,14.428-59.21,1.799c-10.627-7.942-18.395-25.719-13.749-38.956
		c-4.996,3.933-9.217,9.038-12.178,15.296c-11.532,24.374-1.757,54.697,16.942,74.125c35.068,36.435,100.283,37.391,136.404,1.999
		c16.004,34.067,50.847,58.517,88.327,61.979c37.479,3.462,76.211-14.191,98.186-44.75c38.404,24.381,86.823,32.419,131.046,21.756
		c44.223-10.663,83.657-39.885,106.731-79.089c34.146,35.315,70.027,71.774,116.323,88.2c43.739,15.519,91.69,11.319,137.882,6.815
		c21.847-2.131,44.232-4.435,63.939-14.103c19.707-9.667,36.485-28.405,37.418-50.336
		C1018.794,1507.601,1044.874,1510.412,1069.324,1504.026z"/>
	<path style="fill:#FFFFFF;" d="M804.948,1441.676c0.65-13.438,2.723-27.137,9.17-38.945c6.447-11.807,17.922-21.503,31.297-22.949
		c18.372-1.986,35.122,11.685,44.698,27.489c-17.7-7.021-39.631-1.363-51.727,13.343c-12.096,14.707-13.416,37.316-3.112,53.33
		c-8.867-11.098-23.58-16.003-37.752-16.974c-14.91-1.023-31.027,2.232-41.458,12.935c-10.21,10.477-12.274,28.685-1.935,39.744
		c-20.814-8.474-38.709-28.58-24.5-50.713C745.393,1434.379,780.136,1434.023,804.948,1441.676z"/>
	<path style="fill:#FFFFFF;" d="M1040.768,1438.127c9.393,9.837,12.51,25.195,7.694,37.915c4.052-2.419,7.218-6.172,9.338-10.388
		c7.663-15.239,0.377-35.331-13.943-44.599c-14.319-9.267-33.586-8.64-48.937-1.204c-17.526,8.489-32.811,29.068-23.005,48.872
		c6.969,14.075,11.06,13.273,15.094,2.737c4.213-11.003-2.309-24.472,5.758-35.134
		C1004.124,1421.319,1029.026,1425.832,1040.768,1438.127z"/>
	<path style="fill:#D7FBFF;" d="M272.871,1323.98c8.046-24.317,34.723-40.95,60.099-37.473
		c-5.674-23.716,6.313-49.485,25.874-64.045c19.561-14.56,45.301-18.988,69.551-16.432c21.459,2.262,43.11,10.185,57.702,26.082
		c13.869,15.108,20.13,36.875,16.408,57.043c1.212-6.703-5.393-12.034-11.354-15.333c-23.596-13.061-51.59-20.926-77.676-14.078
		c-26.086,6.848-48.446,31.729-45.743,58.563c-19.697-12.347-49.074-4.778-60.355,15.548c-11.281,20.326-2.162,49.259,18.736,59.443
		c-4.86-4.859-20.244-1.652-26.626-4.018c-7.867-2.915-13.789-8.813-18.619-15.71
		C270.963,1359.422,267.398,1340.521,272.871,1323.98z"/>
	<path style="fill:#FFFFFF;" d="M508.146,1406.728c16.196-14.557,39.778-19.45,61.143-15.239
		c1.381-11.827,12.194-21.821,24.093-22.269c11.899-0.447,23.432,8.708,25.696,20.398c-7.502-5.235-18.491-4.761-25.514,1.1
		c-7.023,5.861-9.457,16.588-5.649,24.905c-15.256-1.564-31.022-1.797-45.532,3.169c-14.51,4.966-27.668,15.926-31.893,30.669
		c-4.225,14.741,2.736,32.822,17.1,38.196C490.705,1473.855,472.853,1438.448,508.146,1406.728z"/>
</g>
<g>
	<path style="fill:#FFFFFF;" d="M2259.813,1195.068c-35.542-10.392-72.32-16.547-109.31-18.292
		c-48.098-2.268-105.366,8.885-124.929,52.884c-69.079-23.813-145.377-26.209-215.813-6.776
		c-24.619,6.792-49.072,16.511-68.153,33.484c-19.081,16.975-32.119,42.266-29.328,67.65c-9.822-6.007-20.623-12.247-32.059-10.912
		c-11.436,1.334-21.752,14.498-15.827,24.369c-16.841-47.51-75.351-65.251-125.756-64.949
		c-41.733,0.249-84.037,8.507-120.462,28.877c-35.44,19.819-66.669,61.047-51.438,98.688
		c-55.756-17.685-120.238,17.726-142.974,71.62c-22.736,53.895-7.227,119.326,30.802,163.771
		c38.029,44.444,95.373,69.337,153.39,76.793c83.683,10.754,180.03-20.604,215.628-97.096c-4.558,19.616,3.924,40.572,17.773,55.194
		c13.849,14.622,32.413,23.838,51.149,31.223c36.923,14.551,76.188,23.14,115.813,25.334c29.987,1.66,61.052-0.552,88.057-13.696
		c30.097-14.647,52.42-41.493,70.784-69.478c29.854-45.49,52.301-100.854,39.087-153.637c1.584,34.95,35.741,61.137,70.261,66.837
		c44.475,7.344,92.345-12.819,118.162-49.771c25.818-36.951,28.287-88.835,6.096-128.071c33.394,19.072,82.352-1.731,91.801-39.009
		c3.523-13.902,2.308-29.062,8.438-42.027c5.662-11.977,16.805-20.35,28.008-27.42c27.216-17.175,57.392-29.644,88.792-36.691
		c14.765-3.314,30.201-5.593,43.079-13.538c12.878-7.944,22.566-23.613,18.1-38.07c-28.924,23.293-66.24,24.238-100.629,30.588
		C2337.289,1220.529,2298.815,1206.473,2259.813,1195.068z"/>
	<g>
		<path style="fill:#D7FBFF;" d="M1580.94,1458.992c-0.635,6.956,0.211,13.574,2.245,19.749
			C1583.315,1472.111,1582.61,1465.47,1580.94,1458.992z"/>
		<path style="fill:#D7FBFF;" d="M2460.881,1220.18c12.878-7.944,22.566-23.612,18.1-38.07
			c-28.924,23.293-66.24,24.239-100.629,30.589c-41.063,7.581-79.536-6.476-118.538-17.88c-6.736-1.97-13.517-3.785-20.335-5.449
			c19.654,13.339,33.447,35.075,32.516,58.618c-1.35,34.105-40.434,63.188-71.578,49.226
			c-29.958,48.663-111.689,51.551-145.006,5.123c3.243,41.133-23.636,82.808-62.445,96.818c-19.744,7.129-41.683,6.761-61.607,0.253
			c12.373,20.148,18.839,45.999,19.985,69.747c2.324,48.145-8.796,99.413-42.313,134.053
			c-33.517,34.639-92.956,46.176-130.94,16.504c-24.964-19.5-36.509-52.875-34.845-84.508c1.663-31.633,15.083-61.648,32.492-88.112
			c-28.884,32.491-60.655,66.736-103.104,76.122c-35.629,7.879-78.824-12.214-89.448-44.472
			c-0.62,31.556-20.602,62.813-50.207,74.541c-35.824,14.192-80.985-2.078-99.524-35.858
			c-23.189,62.744-108.832,92.465-165.904,57.576c-29.824-18.232-46.359-49.901-50.411-83.388
			c-11.99,49.375,4.029,104.589,37.426,143.62c38.029,44.445,95.373,69.338,153.39,76.793
			c83.683,10.754,180.03-20.603,215.628-97.096c-4.558,19.617,3.924,40.572,17.773,55.194
			c13.848,14.622,32.412,23.839,51.148,31.223c36.923,14.551,76.188,23.141,115.813,25.334c29.987,1.66,61.052-0.552,88.057-13.695
			c30.097-14.648,52.42-41.493,70.784-69.478c27.016-41.167,47.963-90.419,41.908-138.527c9.044,27.239,38.105,46.883,67.439,51.727
			c44.475,7.344,92.345-12.818,118.162-49.77c25.818-36.951,28.287-88.836,6.096-128.072c33.394,19.072,82.352-1.731,91.801-39.009
			c3.523-13.901,2.308-29.061,8.438-42.026c5.662-11.978,16.805-20.35,28.008-27.42c27.216-17.175,57.393-29.645,88.792-36.692
			C2432.566,1230.404,2448.003,1228.125,2460.881,1220.18z"/>
	</g>
	<path style="fill:#D7FBFF;" d="M1392.051,1458.949c20.543-4.09,42.849,1.895,58.586,15.717c7.744-9.27,21.686-9.86,33.667-8.329
		c11.217,1.434,22.68,4.253,31.546,11.272c8.865,7.02,14.486,19.104,11.135,29.904c2.207-1.676,3.756-4.063,5.104-6.484
		c11.935-21.435,9.704-51.029-8.152-67.853c-17.857-16.824-50.705-15.663-64.707,4.482c-4.584-10.595-17.053-15.121-28.41-17.187
		c-17.653-3.212-36.159-3.157-53.229,2.373c-17.069,5.529-32.592,16.878-41.191,32.626c-12.725,23.302-7.669,54.919,11.688,73.091
		c-10.117-9.498-7.208-31.013-0.083-40.949C1358.261,1473.308,1374.84,1462.375,1392.051,1458.949z"/>
	<path style="fill:#D7FBFF;" d="M1804.59,1398.389c-1.305-19.303,7.289-38.426,20.461-52.597
		c12.296-13.228,32.421-22.819,48.199-14.033c2.28-11.99,11.767-21.801,22.973-26.64c11.205-4.838,23.898-5.235,35.981-3.512
		c13.667,1.948,27.322,6.744,37.47,16.105c10.147,9.36,16.204,23.827,13.139,37.287c-0.143-9.203-10.075-14.836-18.89-17.487
		c-12.361-3.72-26.083-5.327-37.917-0.17c-11.833,5.156-20.615,18.802-16.764,31.122c-4.791-7.201-13.227-11.426-21.796-12.598
		c-21.622-2.956-43.497,13.758-48.12,35.086c-4.77,22.012,7.438,43.314,25.518,55.117c-10.992-1.715-26.437-1.848-36.454-7.01
		C1814.262,1431.781,1805.616,1413.576,1804.59,1398.389z"/>
	<path style="fill:#D7FBFF;" d="M1618.739,1366.226c9.118,6.543,15.532,19.711,9.116,28.919c8.265-6.973,21.857-5.078,29.304,2.762
		c7.447,7.841,9.07,20.057,5.831,30.373c-3.239,10.317-10.71,18.87-19.315,25.42c21.094-8.7,35.949-30.756,36.083-53.573
		c0.022-3.79-0.349-7.669-1.942-11.107c-5.501-11.875-21.676-13.036-34.734-12.156c-0.408-12.253-8.356-23.477-18.836-29.84
		c-10.479-6.362-23.152-8.339-35.399-7.764c-4.663,0.218-9.412,0.816-13.61,2.858c-8.988,4.373-13.638,14.272-17.602,23.449
		c-4.188,9.695-7.599,22.813,0.734,29.301c-11.519-8.969,7.613-28.572,14.576-31.707
		C1587.783,1356.482,1605.142,1356.47,1618.739,1366.226z"/>
</g>
<g>
	<path style="fill:#FFFFFF;" d="M2002.566,1866.606c-12.295-30.707-0.313-67.614,23.661-90.402
		c23.974-22.789,57.729-32.977,90.766-34.604c-7.673-24.817,10.177-51.766,33.466-63.271c23.29-11.505,50.4-11.387,76.372-10.864
		c-3.15-44.921,11.642-91.552,42.905-123.962c31.262-32.411,79.223-48.98,123.193-39.266c43.97,9.714,81.486,46.972,88.173,91.503
		c31.403-30.979,84.306-37.22,122.056-14.399c37.751,22.82,56.811,72.563,43.974,114.767
		c49.538-45.797,124.91-61.505,188.617-39.311c14.257,4.967,28.354,12.012,37.915,23.694c9.561,11.684,13.593,28.849,6.628,42.242
		c40.317-24.615,94.457-24.498,134.668,0.29c23.803,14.673,43.738,41.697,37.556,68.967c19.476-28.595,63.1-24.761,94.871-11.065
		c27.201,11.725,53.454,29.558,66.316,56.24c12.86,26.684,7.965,63.363-16.808,79.603c-18.549,12.16-42.573,10.518-64.654,8.426
		c-50.312-4.766-100.666-9.536-150.556-17.596c-51.082-8.253-102.216-19.988-153.904-17.587
		c-46.857,2.176-92.291,15.896-138.325,24.903c-73.827,14.444-150.012,16.77-224.582,6.853
		c-44.485-5.917-88.343-16.143-132.938-21.172c-67.04-7.561-134.606-3.192-201.564,2.961
		C2086.887,1907.554,2023.016,1917.68,2002.566,1866.606z"/>
	<path style="fill:#D7FBFF;" d="M3147.373,1780.926c-11.204-4.83-23.882-8.422-36.455-9.81
		c-39.262,21.603-68.254,61.681-67.41,106.341c-26.816-54.296-86.225-90.816-146.778-90.231
		c-43.987,0.426-94.403,30.549-90.862,74.395c-16.959-42.555-63.349-69.532-109.158-69.571
		c-42.428-0.036-83.133,20.589-112.859,51.041c18.101-23.442,17.568-60.453-2.903-82.333c-22.806-24.375-66.003-25.324-89.857-1.975
		c12.81-19.508,10.885-46.44-1.369-66.303c-12.255-19.862-33.354-33.111-55.701-39.838c-37.31-11.229-80.805-4.484-109.666,21.688
		c-28.862,26.173-39.37,72.359-20.306,106.339c-21.903-5.458-44.881-10.928-66.779-5.449s-41.859,25.824-38.654,48.169
		c-38.84-34.736-96.896-49.585-145.293-30.274c-23.361,9.32-43.077,27.312-55.632,49.068c0.175,8.319,1.723,16.574,4.865,24.423
		c20.449,51.073,84.32,40.947,127.806,36.95c66.959-6.153,134.523-10.521,201.564-2.961c44.595,5.029,88.452,15.255,132.938,21.172
		c74.57,9.917,150.755,7.592,224.582-6.853c46.035-9.007,91.467-22.728,138.324-24.903c51.688-2.401,102.823,9.334,153.905,17.586
		c49.89,8.061,100.245,12.831,150.556,17.597c22.08,2.092,46.105,3.734,64.654-8.426c24.773-16.239,29.668-52.919,16.807-79.603
		S3174.575,1792.65,3147.373,1780.926z"/>
	<path style="fill:#D7FBFF;" d="M2566.881,1645.306c3.934,24.854-9.457,51.5-31.746,63.177c9.182,1.18,18.446-1.202,27.186-4.254
		c15.309-5.346,30.248-13.116,40.808-25.422s16.063-29.788,11.056-45.211c-5.685-17.506-23.942-28.906-42.287-30.405
		s-36.494,5.413-52.118,15.143c4.779-2.977,23.771-3.566,29.3-1.335C2559.343,1621.142,2565.291,1635.262,2566.881,1645.306z"/>
	<path style="fill:#D7FBFF;" d="M2740.384,1718.197c8.392,8.358,10.53,23.717,1.804,31.726c5.977-7.631,18.381-7.62,26.233-1.938
		s11.795,15.399,13.486,24.943c3.622,20.438-1.711,42.303-14.336,58.778c-12.625,16.474-32.351,27.31-53.027,29.127
		c16.468,10.218,36.964,10.649,56.344,10.774c5.747,0.037,11.576,0.064,17.128-1.424c5.878-1.575,11.193-4.789,16.057-8.448
		c25.882-19.475,39.985-52.252,40.594-84.637c0.192-10.259-0.906-20.741-5.121-30.097c-6.478-14.377-19.924-24.841-34.742-30.233
		s-30.95-6.163-46.683-5.094c3.874-9.616-7.116-18.571-16.969-21.795c-22.313-7.299-48.296-5.087-67.253,8.762
		c-18.955,13.849-29.049,40.031-21.305,62.193c-5.045-14.438,14.615-42.238,26.945-49.431
		C2696.15,1701.714,2726.752,1704.62,2740.384,1718.197z"/>
	<path style="fill:#D7FBFF;" d="M2170.47,1702.091c-15.771,9.629-26.349,28.023-24.816,46.439s16.204,35.464,34.514,37.966
		c-13.218-8.402-16.124-27.283-11.146-42.134c4.509-13.449,14.981-25.35,28.637-29.192c13.654-3.842,30.075,1.887,36.475,14.547
		C2223.174,1708.035,2195.33,1686.911,2170.47,1702.091z"/>
</g>
<g>
	<path style="fill:#FFFFFF;" d="M965.697,1673.251c-24.486-10.541-52.862-5.118-77.982,3.807
		c-43.564,15.478-85.282,43.098-105.188,84.824c-19.906,41.727-11.368,98.745,27.306,124.076c5.001,3.276,12.47,5.641,16.292,1.043
		c5.645,29.6,44.385,38.266,74.222,34.049c52.563-7.428,101.976-35.253,135.58-76.349c11.527,30.688,39.266,53.051,69.563,65.57
		c30.296,12.52,63.328,16.496,95.891,20.279c28.203,3.277,58.424,6.148,83.499-7.169c16.079-8.54,31.868-23.854,49.439-19.091
		c7.518,2.039,13.507,7.529,19.802,12.117c43.66,31.819,104.412,21.463,155.841,4.916c28.122-9.047,56.113-19.602,85.502-22.598
		c44.989-4.587,90.026,8.837,135.23,7.54c63.996-1.837,127.168-33.02,189.869-20.077c-26.445-18.345-57.754-29.607-89.825-32.312
		c-34.073-2.874-68.477,3.727-102.485,0.177c-72.145-7.532-132.494-59.082-203.204-75.262c-34.429-7.878-70.818-7.029-104.842,2.445
		c-6.548,1.823-13.334,3.981-20.012,2.714c-8.76-1.663-15.262-8.746-21.931-14.664c-24.906-22.104-59.2-31.25-92.496-31.757
		s-66.152,6.854-98.637,14.175c16.898-18.582,19.944-48.39,7.153-70.006c-12.792-21.615-40.386-33.292-64.807-27.423
		c20.541-4.937-26.244-45.995-30.208-48.178c-16.504-9.087-31.066-15.058-50.029-13.052
		C1008.271,1597.383,969.917,1631.466,965.697,1673.251z"/>
	<path style="fill:#D7FBFF;" d="M1920.564,1886.189c-26.444-18.345-57.754-29.607-89.825-32.312
		c-2.493-0.21-4.988-0.365-7.484-0.481c-21.787,4.705-43.436,11.696-65.176,16.592c-83.856,18.886-174.534,5.651-249.494-36.414
		c-25.464,15.439-53.782,27.985-83.557,28.506c-29.774,0.521-61.155-13.118-75.257-39.347
		c-23.757,24.963-51.227,50.276-85.462,54.211c-34.236,3.935-73.298-25.739-65.225-59.241c-31.393,1.559-63.383,3.057-93.759-5.021
		c-30.375-8.077-59.434-27.425-71.166-56.584c-9.485,16.643-20.056,33.302-35.506,44.626s-36.9,16.321-54.077,7.842
		c-17.177-8.48-25.986-32.945-14.398-48.198c-22.874,20.051-62.125,17.038-81.671-6.268c-11.32-13.497-14.795-32.445-11.096-49.447
		c0.236-1.085,0.641-2.327,1.147-3.677c-23.747,15.383-43.926,35.531-56.032,60.906c-19.906,41.727-11.368,98.745,27.306,124.076
		c5.001,3.276,12.471,5.641,16.292,1.043c5.646,29.6,44.385,38.266,74.222,34.049c52.563-7.428,101.976-35.253,135.58-76.349
		c11.527,30.688,39.266,53.051,69.563,65.57c30.296,12.52,63.328,16.496,95.891,20.279c28.203,3.277,58.424,6.148,83.499-7.169
		c16.079-8.54,31.868-23.854,49.439-19.091c7.518,2.038,13.507,7.529,19.802,12.117c43.66,31.819,104.412,21.463,155.84,4.916
		c28.122-9.047,56.114-19.602,85.503-22.598c44.99-4.587,90.026,8.837,135.23,7.54
		C1794.691,1904.43,1857.863,1873.247,1920.564,1886.189z"/>
	<path style="fill:#D7FBFF;" d="M984.925,1759.386c-1.846-10.786,2.121-22.12,9.32-30.361c7.2-8.241,17.35-13.558,27.967-16.206
		c12.228-3.049,25.675-2.61,36.832,3.251c11.157,5.861,19.503,17.694,19.284,30.296c0.147-4.788,5.216-8.282,10.006-8.269
		c4.79,0.014,9.177,2.614,12.999,5.502c2.857,2.159,5.603,4.58,7.444,7.651c6.194,10.328-0.269,24.387-10.322,31.02
		c7.999-1.453,14.889-6.799,19.748-13.318c5.618-7.539,8.902-17.051,7.891-26.398s-6.693-18.337-15.25-22.236
		c-8.556-3.899-19.743-1.9-25.625,5.436c2.143-5.879-0.593-12.664-5.139-16.963c-4.545-4.299-10.582-6.603-16.51-8.603
		c-12.326-4.158-25.153-7.484-38.157-7.144c-13.004,0.341-26.314,4.71-35.353,14.065c-6.515,6.744-10.463,15.712-12.073,24.949
		c-2.715,15.574,2.597,33.981,16.866,40.787c-7.613-5.049-11.067-15.563-7.932-24.145L984.925,1759.386z"/>
	<path style="fill:#D7FBFF;" d="M1253.474,1780.385c6.117,6.588,9.553,15.427,10.331,24.384c0.832,9.579-1.555,19.86-8.363,26.649
		c-6.808,6.789-18.541,8.917-26.286,3.221c10.292,8.73,26.174,7.799,38.09,1.46c10.416-5.54,18.935-15.015,22.183-26.356
		c3.248-11.342,0.765-24.434-7.295-33.049c-8.733-9.336-22.4-12.371-35.182-12.203c-8.443,0.111-19.155,1.896-24.071,9.62
		C1234.075,1768.105,1244.617,1770.844,1253.474,1780.385z"/>
	<path style="fill:#D7FBFF;" d="M1095.698,1641.293c6.778,5.748,11.735,16.046,6.637,23.324c1.893-4.261,8.642-3.072,11.735,0.416
		c4.858,5.478,4.959,14.069,1.692,20.622c-3.267,6.552-9.311,11.317-15.732,14.835c9.163-1.888,18.121-5.95,24.42-12.867
		c6.299-6.916,9.556-16.953,6.973-25.944s-11.699-16.097-20.99-15.004c2.86-1.988,3.385-6.242,1.989-9.434
		c-1.396-3.191-4.254-5.492-7.19-7.366c-12.244-7.814-28.606-10.103-41.443-3.309c-12.175,6.442-20.694,23.415-14.235,36.573
		C1051.35,1638.283,1075.375,1624.06,1095.698,1641.293z"/>
</g>
<g>
	<path style="fill:#FFFFFF;" d="M292.483,1646.553c-21.044,11.699-39.138,34.065-35.292,57.834
		c-38.061-6.447-78.498,2.438-110.35,24.248c-7.757,5.312-15.376,11.86-18.246,20.814c-2.871,8.952,1.027,20.606,10.076,23.157
		c-19.832,23.895-21.385,61.177-3.608,86.638c17.777,25.46,53.312,36.848,82.577,26.462c-0.221,12.845,7.344,24.934,17.549,32.736
		c10.205,7.804,22.778,11.864,35.34,14.555c73.105,15.659,154.034-14.524,199.031-74.23c5.505,14.221,21.01,21.721,35.676,25.896
		c29,8.256,60.171,8.746,89.415,1.406c16.075-4.035,32.078-10.744,43.343-22.9c11.265-12.156,16.773-30.668,10.168-45.867
		c6.073,6.353,16.188,6.51,24.772,4.622c20.334-4.473,38.645-18.64,46.69-37.844c8.044-19.203,4.917-43-8.94-58.538
		c-13.858-15.538-38.167-21.225-56.916-12.171c4.15-6.141,2.522-14.847-2.027-20.698c-4.55-5.852-11.402-9.403-18.209-12.336
		c-28.288-12.187-59.834-16.711-90.407-12.967c-15.031,1.84-31.269,6.638-39.405,19.41c-9.925-19.854-28.714-35.063-50.199-40.637
		c-22.305-5.786-43.754-0.477-63.307,10.59C390.362,1616.161,312.606,1635.365,292.483,1646.553z"/>
	<g>
		<path style="fill:#D7FBFF;" d="M453.737,1785.729c0.045-0.509,0.082-1.019,0.097-1.531
			C453.783,1784.708,453.754,1785.219,453.737,1785.729z"/>
		<path style="fill:#D7FBFF;" d="M398.732,1796.988c-0.303-0.642-0.616-1.279-0.94-1.912
			C398.078,1795.729,398.395,1796.364,398.732,1796.988z"/>
		<path style="fill:#D7FBFF;" d="M502.541,1800.517c1.275-1.983,2.278-4.139,2.931-6.428
			C504.245,1796.146,503.281,1798.301,502.541,1800.517z"/>
		<path style="fill:#D7FBFF;" d="M584.93,1774.731c-2.734-5.489-6.241-10.593-10.432-15.037
			C576.493,1765.577,580.206,1770.73,584.93,1774.731z"/>
		<path style="fill:#D7FBFF;" d="M719.624,1784.079c8.044-19.203,4.918-43-8.94-58.538c-6.485-7.271-15.26-12.385-24.682-14.84
			c0.511,5.465,0.27,10.937-1.069,16.356c-4.408,17.853-26.761,31.877-41.717,21.18c0.056,16.576-13.139,32.207-29.49,34.934
			c-10.223,1.704-20.916-1.764-28.796-8.439c7.84,15.739,9.281,34.681,1.931,50.58c-9.914,21.446-36.618,34.444-58.886,26.547
			c-20.01-7.097-31.994-31.703-25.434-51.342c-5.71,8.878-16.946,14.255-27.413,12.25c-12.302-2.356-21.821-14.579-21.392-27.038
			c-1.123,12.551-11.168,23.893-23.577,26.301c-12.214,2.371-25.541-4.14-31.428-15.041c9.769,20.654,8.689,46.146-2.93,65.842
			c-11.979,20.309-34.77,33.791-58.337,34.514c-14.75,0.451-30.26-4.314-39.955-15.44c-9.694-11.127-11.843-29.181-2.603-40.687
			c-11.316,11.166-29.949,14.066-44.124,6.867c-14.175-7.198-22.825-23.954-20.485-39.679
			c-3.602,29.441-28.284,56.006-57.849,58.395c-15.327,1.239-30.749-4.937-42.016-15.294c1.363,2.675,2.903,5.264,4.63,7.737
			c17.777,25.46,53.312,36.848,82.576,26.462c-0.221,12.845,7.345,24.934,17.549,32.736c10.205,7.804,22.778,11.865,35.34,14.555
			c73.105,15.659,154.034-14.524,199.031-74.23c5.505,14.221,21.011,21.722,35.677,25.896c29,8.256,60.171,8.746,89.415,1.406
			c16.075-4.035,32.078-10.744,43.343-22.9c11.265-12.156,16.773-30.668,10.168-45.867c6.073,6.353,16.188,6.511,24.772,4.622
			C693.268,1817.45,711.58,1803.283,719.624,1784.079z"/>
	</g>
	<path style="fill:#D7FBFF;" d="M282.348,1777.31c3.155-3.872,6.897-7.36,11.371-9.579c9.651-4.787,21.138-3.075,31.68-0.854
		c3.694,0.778,7.981,2.129,9.132,5.724c0.54-5.906,4.849-10.983,10.075-13.789c5.226-2.807,11.271-3.661,17.194-3.974
		c7.167-0.379,14.548,0.005,21.162,2.794c6.613,2.788,12.379,8.327,13.941,15.332c4.31-5.082,4.31-12.839,1.43-18.849
		c-2.88-6.009-8.149-10.532-13.688-14.236c-9.101-6.085-19.885-10.543-30.773-9.406c-10.888,1.137-21.525,9.148-22.952,20.002
		c-0.56-3.226-4.324-4.662-7.537-5.291c-14.503-2.84-29.824-1.358-43.513,4.208c-7.673,3.119-15.045,7.694-19.694,14.549
		c-3.276,4.83-5.029,10.533-6.201,16.251c-1.595,7.781-2.186,15.896-0.444,23.646c3.34,14.869,16.144,27.803,31.248,30.603
		C262.156,1824.186,269.888,1792.599,282.348,1777.31z"/>
	<path style="fill:#D7FBFF;" d="M454.617,1700.693c12.935-3.163,26.803-1.412,39.122,3.643c6.955,2.853,14.382,8.253,14.055,15.763
		c4.154-3.768,10.461-3.956,15.951-2.81c14.355,2.996,26.967,14.67,29.461,29.121s-6.488,30.481-20.601,34.47
		c8-4.054,11.631-14.557,8.804-23.067c-2.827-8.51-11.206-14.566-20.101-15.71c-8.895-1.145-18.024,2.199-24.918,7.935
		c1.892-4.84-1.819-10.093-6.018-13.155c-8.595-6.269-19.64-8.059-30.267-8.549c-7.299-0.337-14.814-0.11-21.585,2.635
		s-12.721,8.444-14.022,15.634C417.731,1723.866,432.981,1705.983,454.617,1700.693z"/>
	<path style="fill:#D7FBFF;" d="M153.855,1783.973c6.313-11.188,18.92-18.531,31.766-18.503
		c3.296-10.778,12.487-19.547,23.408-22.334c10.921-2.786,23.189,0.507,31.247,8.387c-10.447-4.557-23.477-4.557-32.482,2.427
		c-9.006,6.984-11.803,21.75-4.088,30.139c-5.327-5.947-14.789-6.186-22.277-3.415c-12.223,4.522-21.861,17.735-18.764,30.395
		c1.763,7.206,7.097,12.949,12.544,17.986c-2.997-2.771-11.437-4.096-15.373-6.263c-3.492-1.924-5.872-3.252-7.773-6.767
		C146.993,1806.65,148.829,1792.883,153.855,1783.973z"/>
</g>
<path style="fill:#FFFFFF;" d="M2776.276,1552.354c36.442-5.391,60.328-16.306,95.322-27.819
	c52.695-17.337,110.267-8.298,164.066,5.225c53.801,13.521,107.416,31.49,162.89,31.654c21.768,0.063,43.543-2.65,64.629-8.055
	c17.211-4.412,35.576-11.999,43.331-27.985c-5.907,36.34-41.678,51.017-78.341,54.377c-36.664,3.36-74.683,0.443-109.832-10.512
	c-56.944-17.747-116.174-32.44-175.639-27.809c-41.225,3.211-81.094,15.603-121.547,24.169
	c-40.453,8.565-83.156,13.216-122.693,1.105c-21.988-6.735-45.031-22.781-45.279-45.776c0.158,14.625,34.334,26.411,45.189,31.083
	C2721.145,1561.81,2751.28,1556.051,2776.276,1552.354z"/>
<path style="fill:#FFFFFF;" d="M3074.625,1582.261c33.628,7.742,66.244,20.941,100.659,23.455
	c35.343,2.582,70.776-6.271,106.122-3.723c12.246,0.883,24.571,3.197,35.541,8.714c27.766,13.965,42.423,49.626,32.502,79.08
	c-9.922,29.454-43.168,48.979-73.724,43.299c18.888-0.691,37.641-10.3,47.765-26.261c10.123-15.961,10.5-38.059-0.494-53.433
	c-14.136-19.768-41.604-24.324-65.879-23.179c-21.767,1.027-43.411,5.272-65.182,4.306c-53.946-2.396-102.548-36.282-156.444-39.624
	c-55.429-3.438-110.786,25.841-165.026,13.919c32.703,7.188,72.223-6.901,102.324-18.198
	C3007.711,1577.509,3037.696,1573.758,3074.625,1582.261z"/>
<path style="fill:#FFFFFF;" d="M3187.092,1667.32c25.043,2.597,50.49-1.008,75.434,2.423c7.289,1.002,14.689,2.684,20.799,6.783
	c6.108,4.101,10.729,11.052,10.317,18.398c-0.248,4.422-2.246,8.564-4.644,12.288c-8.438,13.104-22.48,22.464-37.823,25.207
	c-13.091,2.341-26.501,0.042-39.793-0.38c-20.686-0.656-41.505,3.331-60.485,11.584c27.854-20.571,65.277-19.981,99.532-25.045
	c6.606-0.977,13.356-2.259,19.032-5.778c5.677-3.52,10.117-9.76,9.691-16.425c-0.789-12.367-15.921-17.806-28.262-18.935
	c-24.566-2.249-49.526,0.529-73.855-3.555c-32.38-5.433-63.829-23.725-83.321-50.367
	C3120.74,1646.658,3151.046,1663.583,3187.092,1667.32z"/>
<path style="fill:#FFFFFF;" d="M1119.049,603.289c63.387-7.789,123.458-35.012,187.134-39.896
	c75.125-5.763,149.137,19.92,224.427,22.846c42.688,1.659,85.652-4.089,126.402-16.912c-27.228,16.843-60.196,21.338-92.157,23.225
	c-46.689,2.755-93.659,0.753-139.945-5.964c-28.941-4.201-57.863-10.257-87.095-9.408c-28.25,0.821-55.862,8.067-83.302,14.834
	c-55.31,13.64-111.614,25.559-168.579,25.125c-56.965-0.434-115.19-14.065-161.32-47.491c12.107,8.826,35.375,9.036,49.52,14.39
	c14.141,5.353,26.518,11.298,41.701,14.565C1049.66,605.883,1084.704,607.51,1119.049,603.289z"/>
<path style="fill:#FFFFFF;" d="M925.656,639.541c71.976,16.406,144.103,41.18,217.641,34.716
	c45.184-3.972,88.623-19.66,133.675-24.909c56.65-6.6,114.327,3.599,168.11,22.578c-30.011-8.095-60.251-16.23-91.26-18.393
	c-46.287-3.229-92.314,6.943-137.863,15.789c-55.882,10.854-112.885,19.825-169.56,14.475
	c-62.013-5.854-121.18-28.614-182.628-38.81c-61.448-10.196-130.477-5.516-177.036,35.861c19.46-37.26,69.954-49.449,108.355-53.196
	C838.81,623.385,883.068,629.833,925.656,639.541z"/>
</svg>
