<?xml version="1.0" encoding="utf-8"?>
<!-- Generator: Adobe Illustrator 27.5.0, SVG Export Plug-In . SVG Version: 6.00 Build 0)  -->
<svg version="1.1" xmlns="http://www.w3.org/2000/svg" xmlns:xlink="http://www.w3.org/1999/xlink" x="0px" y="0px"
	 viewBox="0 0 500 500" style="enable-background:new 0 0 500 500;" xml:space="preserve">
<g id="BACKGROUND">
	<rect style="fill:#303238;" width="500" height="500"/>
</g>
<g id="OBJECTS">
	<g>
		<g>
			<path style="fill:#FFFFFF;" d="M358.845,463.233c-1.464,1.056-29.573,0.63-36.911,1.056c-7.338,0.417-22.653-1.26-22.653-1.26
				s3.354,1.464,6.291,4.188c2.937,2.733-6.495,2.52-15.723,0.426c-9.228-2.103-25.803-0.426-25.803-0.426s0.843,1.473,0.213,4.077
				c-0.63,2.604-8.181-0.297-11.961-1.139c-3.771-0.834-77.176,2.937-82.633,0c-5.448-2.937,6.717-6.078,6.717-6.078
				c-6.921-0.417-20.559,0.834-25.59-1.89c-5.031-2.724,7.551-7.134,17.409-8.181c9.858-1.047,15.732,4.41,15.732,4.41
				s1.464-12.795,7.125-12.378c5.67,0.417,11.118,5.874,11.118,5.874s1.89-10.071,7.764-9.645
				c5.874,0.417,10.062,9.645,10.062,9.645c9.441-8.811,10.747-34.604,10.747-34.604s-15.565,5.188-21.235,1.723
				c-5.661-3.456-1.093-13.527-1.723-13.527s-18.724,9.126-33.669,2.205s-6.448-21.235-6.448-21.235
				c-2.511-7.236,6.448-5.031,6.448-5.031c-1.881-5.828,1.89-7.078,6.921-4.725c5.04,2.363,11.905,3.252,11.905,3.252
				s-12.795-7.125-7.551-19.503c3.863-9.126,15.037-7.301,20.633-5.707c1.992,0.556,3.28,1.093,3.28,1.093
				c-6.504-9.645,2.307-33.557,26.423-37.541c24.117-3.984,23.496,27.053,23.496,27.053s6.921-11.952,15.306-10.488
				c8.394,1.473,0,33.14,0,33.14c11.535-7.134,9.645,7.968,9.645,7.968s37.754-21.18,46.778,0.213
				c9.015,21.393-5.457,33.131-22.449,39.635c-16.982,6.504-32.714-2.307-32.714-2.307c-1.473,16.362,3.141,21.189,6.078,28.74
				c2.937,7.551,12.591,7.968,12.591,7.968c1.677-8.598,7.125-3.567,7.125-3.567s3.567-7.134,9.858-7.968
				c6.291-0.843,10.071,16.566,10.071,16.566s12.999-12.378,20.133-12.795c1.973-0.111,3.623,0.76,5.031,2.094
				c3.706,3.493,5.791,10.126,7.764,10.284C357.168,455.052,360.318,462.186,358.845,463.233z"/>
		</g>
		<path style="fill:#D1D1D1;" d="M358.845,463.233c-1.464,1.056-29.573,0.63-36.911,1.056c-7.338,0.417-22.653-1.26-22.653-1.26
			s3.354,1.464,6.291,4.188c2.937,2.733-6.495,2.52-15.723,0.426c-9.228-2.103-25.803-0.426-25.803-0.426s0.843,1.473,0.213,4.077
			c-0.63,2.604-8.181-0.297-11.961-1.139c-3.771-0.834-77.176,2.937-82.633,0c-5.448-2.937,6.717-6.078,6.717-6.078
			c-6.921-0.417-20.559,0.834-25.59-1.89c-5.031-2.724,7.551-7.134,17.409-8.181c9.858-1.047,15.732,4.41,15.732,4.41
			s1.464-12.795,7.125-12.378c5.67,0.417,11.118,5.874,11.118,5.874s1.89-10.071,7.764-9.645c5.874,0.417,10.062,9.645,10.062,9.645
			c9.441-8.811,10.747-34.604,10.747-34.604s-15.565,5.188-21.235,1.723c-5.661-3.456-1.093-13.527-1.723-13.527
			s-18.724,9.126-33.669,2.205s-6.448-21.235-6.448-21.235c-2.511-7.236,6.448-5.031,6.448-5.031
			c-1.881-5.828,1.89-7.078,6.921-4.725c5.04,2.363,11.905,3.252,11.905,3.252s-12.795-7.125-7.551-19.503
			c3.863-9.126,15.037-7.301,20.633-5.707c-2.798,2.261-7.894,0.612-8.968,5.967c-0.843,4.262,2.233,8.57,6.171,10.404
			c3.762,1.76,8.088,1.733,12.23,1.269c-7.069,1.019-11.905,9.904-8.7,16.362c3.298,6.634,13.749,8.06,18.697,2.539
			c-3.169,4.845-1.001,12.304,4.271,14.694c5.272,2.39,12.304-0.889,13.86-6.467c1.177,18.122,0.899,36.328-0.825,54.403
			c3.465-5.781,6.93-11.563,10.395-17.335c-0.019,4.216-0.019,8.552,1.51,12.48c1.529,3.938,4.957,7.43,9.163,7.736
			c4.206,0.315,8.561-3.678,7.597-7.782c5.198,8.653,18.002,11.581,26.451,6.05c7.393,5.151,17.094,6.856,25.812,4.53
			c8.709-2.335,16.26-8.644,20.105-16.806c0.973,0.574,1.936,1.167,2.881,1.76c3.706,3.493,5.791,10.126,7.764,10.284
			C357.168,455.052,360.318,462.186,358.845,463.233z"/>
		<path style="fill:#D1D1D1;" d="M270.959,380.873c-4.757,0.303-9.609-1.416-13.115-4.645c1.073,2.577,3.573,4.244,6.043,5.543
			c2.819,1.482,5.836,2.707,9.008,2.99c2.844,0.254,5.92-0.304,8.266-2.007c1.181-0.857,5.208-5.449,3.517-7.144
			c-1.111-1.113-3.859,1.535-4.802,2.141C277.16,379.499,274.214,380.666,270.959,380.873z"/>
	</g>
	<g>
		<g>
			<g>
				<path style="fill:#FFFFFF;" d="M159.27,275.68c-15.06,18.66-21.61,16.37-23.57,14.4c-1.97-1.96-23.52-17.35-39.1,5.24
					c-15.57,22.59,25.02,33.39,21.75,38.63c-3.28,5.24-17.03,9.49-13.1,18c3.93,8.51,14.08,18.33,15.06,24.55
					c0.98,6.22-13.75,6.88-15.71,11.46c-1.97,4.58,24.55,5.24,30.44,13.75c5.89,8.51,0.66,35.35-22.59,38.3
					c-23.24,2.94-48.44-7.53-44.84-9.5c3.6-1.96,21.93,4.26,34.04,2.62c12.11-1.63,20.63-3.27,16.37-15.71
					c-2.32-6.76-11.41-8.88-21.17-10.93c-8.18-1.73-16.84-3.4-22.37-7.73c-12.11-9.49-4.91-22.26,18.33-32.73
					c0,0-16.04-11.46-30.11-9.82c-14.08,1.63-19.64,13.42-27.17,3.6s-12.44-18.01,2.94-17.02c15.39,0.98,22.92,5.23,24.23-5.57
					s-2.95-13.42-8.84-14.73s-22.91,5.63-22.59-3.57c0.33-9.2,4.91-14.11,19.97-11.49c0,0-38.63-35.35-8.84-49.1
					c0,0-13.75,1.96-14.07-16.04c-0.33-18,27.82-44.19,35.35-41.9c6.74,2.05-2.79,17.23-1.09,26.02c0.19,1.03,0.54,1.97,1.09,2.79
					c0,0,22.59-17.35,33.72-11.13c0,0,16.04-30.07,38.95-17.82c22.92,12.25,18,31.57,18,31.57S174.32,257.02,159.27,275.68z"/>
				<path style="fill:#D1D1D1;" d="M156.577,234.996c0,0-16.707-14.392-33.893-11.937
					C122.684,223.059,144.068,206.179,156.577,234.996z"/>
			</g>
			<path style="fill:#FFFFFF;" d="M134.279,329.696c2.54-4.286,8.792-6.086,12.939-3.323c1.265,0.843,2.327,2.104,2.592,3.601
				c0.265,1.497-0.437,3.207-1.832,3.81c-1.287,0.557-2.839,0.072-3.891-0.855c-1.051-0.927-1.696-2.223-2.257-3.507
				c-2.599,2.728-2.326,7.487,0.217,10.268c2.543,2.78,6.835,3.578,10.421,2.423c4.687-1.509,8.141-6.231,8.159-11.155
				c0.018-4.924-3.402-9.671-8.078-11.214c0.444-2.122,3.017-3.505,5.032-2.704c0.394-1.976-1.1-3.954-2.959-4.73
				c-1.86-0.776-3.97-0.611-5.957-0.276c-4.537,0.766-9.025,2.413-12.515,5.412c-3.49,2.999-5.871,7.477-5.663,12.074
				c0.143,3.165,1.379,6.398,2.686,9.246C133.546,335.517,132.415,332.841,134.279,329.696z"/>
		</g>
		<path style="fill:#D1D1D1;" d="M91.74,403.01c1.67,1,3.82,2.12,5.11,3.48c-8.18-1.73-16.84-3.4-22.37-7.73
			c-12.11-9.49-4.91-22.26,18.33-32.73c0,0-16.04-11.46-30.11-9.82c-14.08,1.63-19.64,13.42-27.17,3.6s-12.44-18.01,2.94-17.02
			c15.39,0.98,22.92,5.23,24.23-5.57s-2.95-13.42-8.84-14.73s-22.91,5.63-22.59-3.57c0.33-9.2,4.91-14.11,19.97-11.49
			c0,0-38.63-35.35-8.84-49.1c0,0-13.75,1.96-14.07-16.04c-0.33-18,27.82-44.19,35.35-41.9c6.74,2.05-2.79,17.23-1.09,26.02
			c-0.22,0.39-0.43,0.78-0.62,1.18c-4.98,10.14-9.23,22.32-8.09,33.69c1.19,11.85,7.54,23.09,17.09,30.22
			c-5.99,0.48-9.29,8.17-7.17,13.79s7.79,9.12,13.48,11.05c-6.04,3.91-8.72,12.29-6.08,18.98s10.32,10.97,17.4,9.7
			c-1.22,4.15,0.61,8.71,3.57,11.87c2.95,3.15,6.88,5.18,10.73,7.15c-6.28,4.97-12.79,10.24-16.04,17.56S84.86,398.91,91.74,403.01z
			"/>
	</g>
	<g>
		<g>
			<path style="fill:#FFFFFF;" d="M209.697,147.992c-11.78,2.25-16.2-4.45-27.61-7.4c-11.41-2.94-12.88,9.2-27.24,11.78
				c-14.36,2.58-8.47-6.63-13.62-8.47c-5.15-1.84-39.02,2.58-52.64,1.11c-13.62-1.47-29.82,2.94-43.44,4.41
				c-13.62,1.48-13.25-2.2-17.67-6.25c0,0,8.1-4.42,16.57-2.95c8.47,1.47,9.2-11.41,18.04-16.93c8.83-5.52,4.41,1.1,9.2,5.15
				c4.78,4.05,4.42-0.73,9.57-1.47c1.81-0.26,3.3-0.16,4.48,0.09c2.17,0.45,3.25,1.38,3.25,1.38s-4.05-12.51,21.72-40.12
				c25.77-27.61,36.44-1.47,36.44-1.47c-2.02-14.84,18.51-41.11,42.63-36.36c2.21,0.44,4.45,1.13,6.7,2.12
				c26.87,11.78,26.5,27.24,27.95,51.06c1.44,23.81-19.48,31.03-19.48,31.03s7.36,2.58,15.82,5.43
				C228.837,142.992,221.477,145.742,209.697,147.992z"/>
			<path style="fill:#FFFFFF;" d="M93.079,83.449c1.938-2.182,4.011-4.242,6.174-6.201c0.908-0.823,1.893-1.735,2.058-2.95
				c0.161-1.18-0.542-2.355-1.519-3.037c-0.976-0.682-2.182-0.948-3.366-1.081c-2.7-0.304-5.498,0.019-7.967,1.153
				c-2.469,1.133-4.585,3.108-5.679,5.595c-1.825,4.148-0.652,8.935,0.545,13.305c-1.641-0.146-3.343-0.19-4.881,0.398
				c-1.538,0.588-2.884,1.947-3.002,3.59c-0.118,1.643,1.378,3.345,3.001,3.066c-1.744,3.771-2.564,7.967-2.366,12.117
				c0.027,0.563,0.092,1.173,0.479,1.582c1.504,1.593,2.242-2.785,2.503-3.54c0.741-2.152,1.587-4.268,2.532-6.339
				c1.854-4.062,4.09-7.949,6.671-11.593C89.755,87.406,91.363,85.38,93.079,83.449z"/>
			<path style="fill:#FFFFFF;" d="M120.515,52.526c-2.248,0.751-3.695,3.371-3.11,5.668c0.585,2.297,3.135,3.907,5.455,3.423
				C129.2,60.296,127.057,50.34,120.515,52.526z"/>
		</g>
		<path style="fill:#D1D1D1;" d="M209.697,147.992c-11.78,2.25-16.2-4.45-27.61-7.4c-11.41-2.94-12.88,9.2-27.24,11.78
			c-14.36,2.58-8.47-6.63-13.62-8.47c-5.15-1.84-39.02,2.58-52.64,1.11c-13.62-1.47-29.82,2.94-43.44,4.41
			c-13.62,1.48-13.25-2.2-17.67-6.25c0,0,8.1-4.42,16.57-2.95c8.47,1.47,9.2-11.41,18.04-16.93c8.83-5.52,4.41,1.1,9.2,5.15
			c4.78,4.05,4.42-0.73,9.57-1.47c1.81-0.26,3.3-0.16,4.48,0.09c0.21,0.14,0.43,0.28,0.64,0.42c2.62,1.71,5.38,3.38,8.47,3.83
			c7.81,1.13,14.57-5.99,17.19-13.43c2.74,8.84,9.42,16.39,17.86,20.18c8.45,3.79,18.53,3.76,26.96-0.07
			c3.41-1.55,6.64-3.8,8.52-7.04c1.88-3.23,2.12-7.6-0.12-10.59c16.62,0.08,32.64-11.59,37.65-27.44
			c2.53-7.99,2.15-16.73-0.57-24.61c-1.34-3.9-3.26-7.61-5.71-10.93c-1.81-2.47-4.82-4.59-6.85-6.89c2.21,0.44,4.45,1.13,6.7,2.12
			c26.87,11.78,26.5,27.24,27.95,51.06c1.44,23.81-19.48,31.03-19.48,31.03s7.36,2.58,15.82,5.43
			C228.837,142.992,221.477,145.742,209.697,147.992z"/>
	</g>
	<g>
		<g>
			<path style="fill:#FFFFFF;" d="M388.13,68.749c-7.04-0.98-28.66-6.06-28.66-6.06s4.09,3.16,1.8,6.17
				c-2.29,3.01-11.74,3.82-20.69,1.69c-8.96-2.12-48.27,0.5-51.87,23.1c-3.61,22.6,0,25.22,10.81,25.06
				c10.81-0.16,21.62-1.97,18.34,3.77c-3.27,5.73-16.54,1.14-8.02,9.99c7.92,8.23,55.34-8.53,55.35,24.97
				c0,2.47-0.26,5.22-0.81,8.28c0,0-19-5.73-37.34-8.35c-18.35-2.63-28.34-8.19-25.72-14.42c2.62-6.22-4.42-5.73-16.05-16.54
				c-11.63-10.81-11.14-15.89-11.14-15.89s-6.88-5.08-4.75-13.27s6.88-14.9,16.71-18.18c0,0-7.21-14.74,0.82-20.64
				c4.27-3.14,12.95-2.28,20.14-0.79c6.31,1.3,11.47,3.09,11.47,3.09s12.28-2.79,18.34-2.62c6.06,0.16,10.98-1.91,10.98-4.59
				c0-3.94,0.49-10.48,9.01-11.63c8.51-1.15,39.47,0.49,36.36,2.95c-3.11,2.46-12.94,2.46-8.85,4.42c4.1,1.97,13.43,1.8,15.4,8.03
				C401.73,63.509,395.17,69.739,388.13,68.749z"/>
			<path style="fill:#FFFFFF;" d="M463.09,78.609c-0.78,2.78-3.38,4.61-5.9,6.03c-12.01,6.75-25.82,9.2-39.52,11.1
				c8.24-0.58,16.63,1.55,24.03,5.31c2.62,1.33,5.2,2.92,6.91,5.31c1.7,2.38,2.34,5.73,0.89,8.28c-1.27,2.22-3.87,3.42-6.42,3.64
				c-2.55,0.22-5.09-0.39-7.57-1.02c-10.76-2.75-21.46-6-32.51-7.12c-9.11-0.91-18.63-0.26-27.04,3.17c-2.48,1-4.86,2.24-7.11,3.76
				c-1.36,0.91-2.36,2.31-2.56,3.93c-0.38,3.08,2.17,4.49,4.49,5.41c5.25,2.07,10.87,3.2,16.51,3.33c-2.53,3.88-7.54,5.6-12.17,5.32
				c-4.63-0.29-8.98-2.27-13.08-4.45c-3.47-1.84-6.93-3.93-9.34-7.03c-2.41-3.1-3.57-7.45-1.99-11.04c1.23-2.81,4.45-4.7,7.38-4.38
				l-12.51-4.29c-1.12-0.38-2.13-1.08-2.79-2.07c-4.87-7.27,10.34-7.84,13.95-6.26c6.06,2.64,13.19,2.61,16.92-2.88
				c1.25-1.84,3.52-2.65,5.72-2.31c12.36,1.91,25.17-2.85,37-7.56c3.13-1.24,6.34-2.53,8.45-5.31c1-1.32,1.62-2.92,1.55-4.57
				c-0.19-4.36-4.5-6.39-7.82-8.74c-3.32-2.35-6.12-7.38-2.33-10.08c0.97-0.69,2.16-1,3.35-1.03c10.65-0.22,21.31-0.44,31.96-0.67
				c1.87-0.04,2.86,2.2,1.58,3.55c-2.6,2.77-5.73,5.04-9.18,6.63c0.44,0,0.89,0.02,1.33,0.06c5.66,0.4,11.13,3.06,14.91,7.3
				C462.31,72.299,463.96,75.539,463.09,78.609z"/>
		</g>
		<path style="fill:#D1D1D1;" d="M463.09,78.609c-0.78,2.78-3.38,4.61-5.9,6.03c-12.01,6.75-25.82,9.2-39.52,11.1
			c8.24-0.58,16.63,1.55,24.03,5.31c2.62,1.33,5.2,2.92,6.91,5.31c1.7,2.38,2.34,5.73,0.89,8.28c-1.27,2.22-3.87,3.42-6.42,3.64
			c-2.55,0.22-5.09-0.39-7.57-1.02c-10.76-2.75-21.46-6-32.51-7.12c-9.11-0.91-18.63-0.26-27.04,3.17c-0.22,0-0.45,0.02-0.67,0.03
			c8.02-4.57,17.17-7.16,26.4-7.46c1.32-0.04,2.68-0.05,3.89-0.58c1.2-0.52,2.23-1.73,2.07-3.04c-0.14-1.26-1.25-2.15-2.27-2.89
			c-2.83-2.06-5.66-4.12-8.48-6.19c9.02-0.16,18.15-0.33,26.86-2.71c8.7-2.37,17.08-7.2,21.88-14.85c1.38-2.2,2.47-4.71,2.41-7.32
			c-0.06-2.4-1.23-4.06-2.78-5.67c5.66,0.4,11.13,3.06,14.91,7.3C462.31,72.299,463.96,75.539,463.09,78.609z"/>
		<path style="fill:#D1D1D1;" d="M365.19,157.439c0,2.47-0.26,5.22-0.81,8.28c0,0-19-5.73-37.34-8.35
			c-18.35-2.63-28.34-8.19-25.72-14.42c2.62-6.22-4.42-5.73-16.05-16.54c-11.63-10.81-11.14-15.89-11.14-15.89
			s-6.88-5.08-4.75-13.27s6.88-14.9,16.71-18.18c0,0-7.21-14.74,0.82-20.64c4.27-3.14,12.95-2.28,20.14-0.79
			c-2.69,0.11-5.37,0.76-7.8,1.93c-3.38,1.64-6.39,4.41-7.46,8.02c-1.07,3.6,0.26,8.01,3.59,9.77c-8.53,1.63-15.65,8.75-17.66,17.2
			c-2.01,8.46,0.98,17.81,7.24,23.83c3.71,3.57,8.57,6.04,13.69,6.45c1.06,6.48,4.99,12.43,10.53,15.94
			c5.53,3.52,12.59,4.55,18.9,2.76c-1.21,1.78-2.42,3.56-3.62,5.33c9.91,5.12,20.75,9.08,31.9,8.91
			C359.3,157.739,362.26,157.399,365.19,157.439z"/>
	</g>
	<g>
		<path style="fill:#FFFFFF;" d="M349.814,283.337c-15.41,2.49-21.53-7.7-21.53-7.7c2.04,24.47-17.45,20.62-17.45,20.62
			c4.99,11.55-1.13,14.05-13.14,15.63c-12.01,1.59-9.06,10.2-7.7,20.17c0,0-7.48-1.13-11.56-12.24c-2.58-7.04,0.64-10.08,3.35-11.37
			c1.53-0.72,3.31-0.69,4.85,0.02c2.47,1.12,5.91,2.47,0.87-1.34c-7.16-5.39,14.72-12.01,14.72-12.01c-8.41-1.1-5.36-8.27-5.22-8.6
			c-0.72,0.21-28.82,8.78-33.75,4.98c-4.98-3.85,1.81-8.16,1.81-8.16c-9.29,2.95-14.27-2.94-14.27-2.94s-16.77,6.57-30.36-2.5
			c-5.14-3.43-6.62-7.91-6.48-12.15c0.24-6.99,4.89-13.34,4.89-13.34s-31.95,3.29-25.15-18.69c6.74-21.79,30.61-7.95,31.03-7.71
			c-0.16-0.39-3.77-8.88-0.89-11.1c2.94-2.26,5.21,2.27,5.21,2.27c-9.97-27.42,9.29-44.64,30.13-44.41
			c20.85,0.22,26.74,20.84,37.62,26.06c7.37,3.53,12.56,2.9,18.38,2.27c2.77-0.3,5.68-0.6,9.03-0.46
			c10.43,0.45,10.88,13.14,11.11,21.52c0.17,6.58-3.97,12.32-5.76,14.49c2.79-3.04,12.21-12.67,21.16-13.81
			c10.65-1.36,25.83-3.85,28.33,28.55C381.534,283.797,365.224,280.847,349.814,283.337z"/>
		<path style="fill:#D1D1D1;" d="M349.814,283.337c-15.41,2.49-21.53-7.7-21.53-7.7c2.04,24.47-17.45,20.62-17.45,20.62
			c4.99,11.55-1.13,14.05-13.14,15.63c-12.01,1.59-9.06,10.2-7.7,20.17c0,0-7.48-1.13-11.56-12.24c-2.58-7.04,0.64-10.08,3.35-11.37
			c1.53-0.72,3.31-0.69,4.85,0.02c2.47,1.12,5.91,2.47,0.87-1.34c-7.16-5.39,14.72-12.01,14.72-12.01c-8.41-1.1-5.36-8.27-5.22-8.6
			c-0.72,0.21-28.82,8.78-33.75,4.98c-4.98-3.85,1.81-8.16,1.81-8.16c-9.29,2.95-14.27-2.94-14.27-2.94s-16.77,6.57-30.36-2.5
			c-5.14-3.43-6.62-7.91-6.48-12.15c0.23,0.11,0.47,0.21,0.7,0.31c6.67,2.84,14.67,2.31,20.9-1.38s10.54-10.45,11.25-17.66
			c3.87,12.81,14.07,23.55,26.66,28.09c12.6,4.54,27.3,2.76,38.45-4.64c3.8-2.52,7.27-5.75,9.14-9.91
			c1.87-4.15,1.87-9.33-0.82-13.01c-4.63-6.31-14.1-5.57-21.8-4.19c5.9-2.65,11.65-5.96,15.98-10.76c3.74-4.14,6.44-9.63,6.48-15.3
			c0.04-5.93-4.16-8.86-5.43-14.03c-0.19-0.79-0.28-1.51-0.29-2.17c2.77-0.3,5.68-0.6,9.03-0.46c10.43,0.45,10.88,13.14,11.11,21.52
			c0.17,6.58-3.97,12.32-5.76,14.49c2.79-3.04,12.21-12.67,21.16-13.81c10.65-1.36,25.83-3.85,28.33,28.55
			C381.534,283.797,365.224,280.847,349.814,283.337z"/>
	</g>
	<g>
		<g>
			<path style="fill:#FFFFFF;" d="M447.994,252.497c-1.2,1.83-2.59,3.73-4.2,5.69c0,0-4.52,9.98-10.46,8.79
				c-5.77-1.15-3.02-6.12-2.86-6.4c-0.41,0.15-12.42,4.6-17.33-3.34c1.42-2.61,3.18-1.19,8.95-10.22c5.78-9.03,0-14.97,0-14.97
				s-12.04,4.85-13.47-3.63c-1.42-8.48,4.52-13,4.52-13s2.85-3.33-6.89-7.84c-9.75-4.52-9.75-4.52-13.07-11.17
				c-3.33-6.65-3.33-6.65-3.33-6.65c10.46,3.14,26.31,2.82,38.85,6.65c10.26,3.13,18.3,9.03,19.37,21.86
				C448.074,218.266,462.234,230.617,447.994,252.497z"/>
			<path style="fill:#FFFFFF;" d="M444.154,302.147c0,0,9.74,27.33-7.13,22.81c0,0,4.51,13.07,1.66,23.77
				c-1.04,3.91-2.09,7.85-3.38,11.13c-2.26,5.68-5.28,9.36-10.4,7.4c-8.08-3.09-7.37-15.21-7.37-15.21s-14.73-4.75-13.07-14.73
				c1.67-9.98,16.87-21.62,16.87-21.62s-11.16-7.61-4.27-14.02c3.43-3.2,7.94-3.69,12-4.28c4.08-0.59,7.72-1.3,9.38-4.99
				c3.33-7.37,6.94-14.32,4.28-23.76C442.724,268.647,460.304,289.316,444.154,302.147z"/>
			<path style="fill:#FFFFFF;" d="M463.624,381.267c-2.72,16.55-18,20.5-18,20.5c-0.72,19.91-9.43,23.84-19.18,21.7
				c-9.75-2.14-18.58-0.98-23,9.18c-4.42,10.16,9.57,15.42,13.05,16.19c1.22,0.27,1.78,1.06,1.66,2.06
				c-0.21,1.84-2.77,4.38-7.88,5.51c-7.86,1.74-10.04-5.85-10.04-5.85c-12.42-4.19-11.75-27.03,0.59-47.31
				c10.85-17.82,22.35-11.55,31.59-10.54c1.27,0.14,2.51,0.18,3.69,0.04c9.74-1.15,22.67-26.78,19.89-39.06
				C455.994,353.686,466.344,364.716,463.624,381.267z"/>
			<path style="fill:#FFFFFF;" d="M471.172,352.51c0.223,0.979,0.693,2.208,1.697,2.184c0.874-0.021,1.367-1.055,1.368-1.93
				s-0.274-1.767-0.041-2.61c2.076,4.561,2.607,9.809,1.487,14.693c2.695-1.926,4.134-5.274,4.326-8.581
				c0.193-3.307-0.73-6.587-1.998-9.648c-1.496-3.609-3.528-7.066-6.431-9.681c-1.62-1.46-3.521-2.632-5.584-3.35
				c-1.077-0.375-4.661-1.266-3.954,0.98c0.253,0.803,1.489,1.809,2.01,2.511c0.67,0.903,1.304,1.833,1.898,2.787
				c1.145,1.838,2.147,3.766,2.993,5.759C469.887,347.848,470.636,350.155,471.172,352.51z"/>
		</g>
		<path style="fill:#D1D1D1;" d="M447.994,252.497c-1.2,1.83-2.59,3.73-4.2,5.69c0,0-4.52,9.98-10.46,8.79
			c-5.77-1.15-3.02-6.12-2.86-6.4c-0.41,0.15-12.42,4.6-17.33-3.34c1.42-2.61,3.18-1.19,8.95-10.22c5.78-9.03,0-14.97,0-14.97
			s-12.04,4.85-13.47-3.63c-1.42-8.48,4.52-13,4.52-13s2.85-3.33-6.89-7.84c-9.75-4.52-9.75-4.52-13.07-11.17
			c-3.33-6.65-3.33-6.65-3.33-6.65c10.46,3.14,26.31,2.82,38.85,6.65c-0.36-0.05-0.7-0.08-1.02-0.06c-3.28,0.17-6.78,1.8-8.06,5.01
			c-1.38,3.49,0.27,7.47,2.56,10.43c3.83,4.97,9.57,8.42,15.75,9.47c-4.05,5.59-8.24,11.53-8.96,18.4
			c-0.73,6.87,3.46,14.77,10.33,15.52C442.424,255.527,445.424,254.367,447.994,252.497z"/>
		<path style="fill:#D1D1D1;" d="M435.304,359.857c-2.26,5.68-5.28,9.36-10.4,7.4c-8.08-3.09-7.37-15.21-7.37-15.21
			s-14.73-4.75-13.07-14.73c1.67-9.98,16.87-21.62,16.87-21.62s-11.16-7.61-4.27-14.02c3.43-3.2,7.94-3.69,12-4.28
			c-1.2,1.04-2.55,1.99-3.47,3.29c-3.94,5.57,1.73,15.69,8.5,10.97c-5.77,6.17-10.83,13.02-15.04,20.36
			c-1.3,2.27-2.54,4.67-2.78,7.28c-0.23,2.61,0.79,5.49,3.08,6.76c2.07,1.15,5.12,0.33,6.07-1.74c-1.17,3.54-2.23,7.27-1.45,10.9
			c0.84,3.86,4.62,7.38,8.46,6.42C433.554,361.357,434.534,360.707,435.304,359.857z"/>
		<path style="fill:#D1D1D1;" d="M421.984,407.427c1.14,3.9,5.37,6.82,9.34,5.97c-3.86,2.73-9.3,3.05-13.46,0.78
			c-4.16-2.27-6.84-7.02-6.64-11.75c-3.88,6.29-7.81,12.69-9.74,19.83s-1.61,15.24,2.57,21.34c3.13,4.54,8.73,7.5,14.1,7.3
			c-0.21,1.84-2.77,4.38-7.88,5.51c-7.86,1.74-10.04-5.85-10.04-5.85c-12.42-4.19-11.75-27.03,0.59-47.31
			c10.85-17.82,22.35-11.55,31.59-10.54c-0.31,0.23-0.66,0.47-1.06,0.71C426.074,396.586,419.734,399.727,421.984,407.427z"/>
		<path style="fill:#FFFFFF;" d="M383.939,405.31c-0.561,1.238-2.241,1.453-3.067,0.374c-3.31-4.325-3.676-10.781-1.369-15.849
			c1.376-3.022,3.514-5.585,6.079-7.696c1.652-1.36,3.862,0.86,2.536,2.539l0,0c-0.275,0.348-0.567,0.769-0.454,1.198
			c0.261,0.995,1.767,0.4,2.511-0.31c3.959-3.779,10.654-6.707,16.61-6.401c1.898,0.098,2.297,2.735,0.545,3.47
			c-1.634,0.687-3.382,1.287-4.543,1.961c-2.959,1.719-5.723,3.769-8.236,6.091C390.101,394.804,386.44,399.786,383.939,405.31z"/>
	</g>
</g>
</svg>
