<?xml version="1.0" encoding="utf-8"?>
<!-- Generator: Adobe Illustrator 27.5.0, SVG Export Plug-In . SVG Version: 6.00 Build 0)  -->
<svg version="1.1" id="Слой_2" xmlns="http://www.w3.org/2000/svg" xmlns:xlink="http://www.w3.org/1999/xlink" x="0px" y="0px"
	 viewBox="0 0 3400 2000" style="enable-background:new 0 0 3400 2000;" xml:space="preserve">
<rect style="fill:#FFFFFF;" width="3400" height="2000"/>
<g>
	<path style="fill:#AADBFB;" d="M2100.751,610.553c-4.074-43.592-38.444-48.363-45.337-67.584
		c-6.465-18.027-6.82-69.323-6.82-69.323h-56.424c0,0-0.356,51.295-6.82,69.323c-6.894,19.221-41.264,23.992-45.338,67.584
		c-5.506,58.904-5.506,239.956-5.506,239.956v47.743c0,0,0,33,23.837,32.107c20.93-0.784,16.673-24.529,27.833-23.909
		c11.161,0.62,7.577,9.586,14.881,17.361c8.543,9.094,30.106,9.094,38.649,0c7.304-7.775,3.721-16.741,14.881-17.361
		c11.161-0.62,6.903,23.125,27.833,23.909c23.837,0.893,23.837-32.107,23.837-32.107v-47.743
		C2106.257,850.509,2106.257,669.457,2100.751,610.553z"/>
	<g>
		<path style="fill:#85C2F9;" d="M2039.706,906.455c-11.161,0.62-7.577,9.586-14.881,17.361c-2.84,3.023-7.123,5.035-11.884,6.048
			c9.561,2.034,21.062,0.022,26.765-6.048c4.273-4.549,4.822-9.504,6.775-12.958
			C2044.854,908.125,2042.921,906.277,2039.706,906.455z"/>
		<path style="fill:#85C2F9;" d="M1971.295,906.455c-9.782-0.543-7.723,17.63-21.158,22.655c2.361,0.9,5.077,1.371,8.206,1.254
			c14.9-0.558,17.037-12.749,21.058-19.505C1978.016,908.409,1975.926,906.712,1971.295,906.455z"/>
		<path style="fill:#85C2F9;" d="M2100.751,610.559c-4.074-43.592-38.444-48.363-45.337-67.584
			c-6.465-18.027-6.82-69.322-6.82-69.322h-14.881c0,0,0.355,51.295,6.82,69.322c6.893,19.221,41.263,23.993,45.337,67.584
			c5.506,58.904,5.506,239.955,5.506,239.955v47.743c0,0-0.004,24.9-15.631,30.853c1.894,0.708,4.091,1.157,6.675,1.254
			c23.837,0.893,23.837-32.107,23.837-32.107v-47.743C2106.257,850.514,2106.257,669.462,2100.751,610.559z"/>
	</g>
	<g>
		<path style="fill:#304298;" d="M2050.935,513.621h-58.833c-4.643,0-8.406-3.764-8.406-8.406v-29.897
			c0-4.643,3.764-8.406,8.406-8.406h58.833c4.643,0,8.406,3.763,8.406,8.406v29.897
			C2059.341,509.857,2055.577,513.621,2050.935,513.621z"/>
		<path style="fill:#304298;" d="M2054.398,524.345h-65.076c-1.635,0-2.96-1.326-2.96-2.96v-1.003c0-1.635,1.325-2.96,2.96-2.96
			h65.076c1.635,0,2.96,1.325,2.96,2.96v1.003C2057.358,523.019,2056.033,524.345,2054.398,524.345z"/>
		<g>
			<rect x="1990.31" y="473.647" style="fill:#223466;" width="5.167" height="39.974"/>
			<rect x="2001.47" y="473.647" style="fill:#223466;" width="5.167" height="39.974"/>
			<rect x="2014.284" y="473.647" style="fill:#223466;" width="5.167" height="39.974"/>
			<rect x="2026.686" y="473.647" style="fill:#223466;" width="5.167" height="39.974"/>
			<rect x="2038.053" y="473.647" style="fill:#223466;" width="5.167" height="39.974"/>
			<rect x="2047.146" y="473.647" style="fill:#223466;" width="5.167" height="39.974"/>
		</g>
		<path style="fill:#405CC6;" d="M2052.349,471.353h-62.097c-0.829,0-1.508-0.679-1.508-1.508l0,0c0-0.829,0.679-1.508,1.508-1.508
			h62.097c0.829,0,1.508,0.679,1.508,1.508l0,0C2053.856,470.674,2053.178,471.353,2052.349,471.353z"/>
	</g>
	<path style="opacity:0.58;fill:#FFFFFF;" d="M1995.984,563.619c-15.294-1.954-22.863,5.145-31.002,21.5
		c-9.921,19.936-3.219,279.498-3.219,279.498s-1.328,12.118,12.52,10.554c13.848-1.563,11.456-11.336,11.456-11.336
		s-1.312-253.455,0-265.816C1988.013,576.592,2006.639,564.981,1995.984,563.619z"/>
	<path style="opacity:0.58;fill:#FFFFFF;" d="M2029.725,570.33c0.903,3.083,3.592,5.232,5.886,7.482
		c7.319,7.176,11.652,17.308,11.786,27.557c0.034,2.63-0.151,5.441,1.208,7.692c1.845,3.053,6.208,3.953,9.463,2.496
		c3.255-1.457,5.395-4.779,6.196-8.254s0.436-7.111-0.174-10.625c-1.367-7.877-4.02-15.688-8.908-22.015
		C2051.747,570.218,2025.199,554.87,2029.725,570.33z"/>
	<path style="opacity:0.58;fill:#FFFFFF;" d="M1997.339,538.062c0.025,3.185,0.05,6.37,0.075,9.555
		c0.016,1.886,0.041,3.829,0.773,5.567c0.731,1.738,2.354,3.242,4.24,3.243c1.915,0,3.554-1.551,4.266-3.33
		c0.712-1.778,0.691-3.753,0.66-5.669c-0.079-4.891-0.158-9.782-0.237-14.673c-0.024-1.545-0.075-3.18-0.909-4.483
		C2001.347,520.689,1997.315,535.053,1997.339,538.062z"/>
</g>
<g>
	<path style="fill:#AADBFB;" d="M468.744,708.91c-1.906-28.108,50.2-278.605,48.294-338.129
		c-1.906-59.523-62.198-135.642-89.842-148.953h0.848c-9.087-7.801-17.937-13.561-21.079-22.321
		c-6.464-18.027-6.82-69.323-6.82-69.323h-56.423c0,0-0.356,51.295-6.82,69.323c-3.142,8.761-11.992,14.521-21.079,22.321
		c-39.929,25.34-87.087,89.43-88.994,148.953c-1.906,59.524,50.2,310.02,48.294,338.129c-1.906,28.108-23.511,60.35-27.324,91.766
		c-3.813,31.416,0.408,97.576,0.408,97.576s0,33,34.396,32.107c30.2-0.784,24.058-24.529,40.163-23.909
		c16.104,0.62,10.934,9.586,21.473,17.361c12.327,9.094,43.443,9.094,55.77,0c10.54-7.775,5.369-16.741,21.473-17.361
		c16.105-0.62,9.962,23.125,40.163,23.909c34.396,0.893,34.396-32.107,34.396-32.107s3.84-66.16,0.028-97.576
		C492.255,769.261,470.65,737.019,468.744,708.91z"/>
	<g>
		<path style="fill:#85C2F9;" d="M468.744,708.91c-1.906-28.108,50.2-278.605,48.294-338.129
			c-1.906-59.523-62.198-135.642-89.842-148.953h0.848c-9.087-7.801-17.937-13.561-21.079-22.321
			c-6.464-18.027-6.82-69.323-6.82-69.323h-24.801c0,0,0.355,51.295,6.82,69.323c3.142,8.761,11.991,14.521,21.079,22.321h-0.848
			c27.644,13.312,87.935,89.43,89.841,148.953c1.906,59.524-50.2,310.02-48.294,338.129c1.907,28.108,23.512,60.35,27.324,91.766
			c3.813,31.416-0.028,97.576-0.028,97.576s-0.003,23.665-20.896,30.371c3.086,0.985,6.785,1.619,11.301,1.736
			c34.396,0.893,34.396-32.107,34.396-32.107s3.84-66.16,0.028-97.576C492.255,769.261,470.65,737.019,468.744,708.91z"/>
	</g>
	<path style="fill:#85C2F9;" d="M461.454,907.896c-30.2-0.784-24.058-24.529-40.163-23.909c-16.105,0.62-10.934,9.586-21.473,17.361
		c-12.327,9.094-43.443,9.094-55.77,0c-10.539-7.775-5.368-16.741-21.473-17.361c-16.105-0.62-9.962,23.125-40.162,23.909
		c-34.396,0.893-34.396-32.107-34.396-32.107v22.462c0,0,0,33,34.396,32.107c30.2-0.784,24.058-24.529,40.162-23.909
		c16.105,0.62,10.934,9.586,21.473,17.361c12.327,9.094,43.443,9.094,55.77,0c10.539-7.775,5.368-16.741,21.473-17.361
		c16.104-0.62,9.962,23.125,40.163,23.909c34.397,0.893,34.397-32.107,34.397-32.107v-22.462
		C495.85,875.789,495.85,908.789,461.454,907.896z"/>
	<g>
		<path style="fill:#304298;" d="M401.349,166.844h-58.832c-4.643,0-8.406-3.764-8.406-8.406V128.54
			c0-4.642,3.764-8.406,8.406-8.406h58.832c4.643,0,8.406,3.763,8.406,8.406v29.898C409.755,163.08,405.992,166.844,401.349,166.844
			z"/>
		<path style="fill:#304298;" d="M404.813,177.568h-65.076c-1.635,0-2.96-1.326-2.96-2.961v-1.003c0-1.635,1.326-2.96,2.96-2.96
			h65.076c1.635,0,2.96,1.325,2.96,2.96v1.003C407.773,176.243,406.448,177.568,404.813,177.568z"/>
		<g>
			<rect x="340.724" y="126.87" style="fill:#223466;" width="5.167" height="39.974"/>
			<rect x="351.885" y="126.87" style="fill:#223466;" width="5.167" height="39.974"/>
			<rect x="364.699" y="126.87" style="fill:#223466;" width="5.167" height="39.974"/>
			<rect x="377.1" y="126.87" style="fill:#223466;" width="5.167" height="39.974"/>
			<rect x="388.467" y="126.87" style="fill:#223466;" width="5.167" height="39.974"/>
			<rect x="397.561" y="126.87" style="fill:#223466;" width="5.167" height="39.974"/>
		</g>
		<path style="fill:#405CC6;" d="M402.763,124.575h-62.096c-0.83,0-1.508-0.678-1.508-1.507l0,0c0-0.83,0.678-1.508,1.508-1.508
			h62.096c0.829,0,1.508,0.678,1.508,1.508l0,0C404.271,123.897,403.592,124.575,402.763,124.575z"/>
	</g>
	<path style="opacity:0.58;fill:#FFFFFF;" d="M276.998,279.693c-6.605,8.154-14.077,18.396-11.751,29.973
		c1.483,7.382,6.716,12.854,12.346,15.359c5.63,2.506,11.677,2.549,17.594,2.565c19.14,0.052,38.28,0.104,57.421,0.157
		c9.006,0.024,19.455-0.867,24.455-10.314c2.309-4.364,2.97-9.849,3.133-15.169c0.506-16.523-4.06-34.582-14.938-43.846
		c-6.135-5.225-17.559-4.292-27.682-5.005C326.061,252.603,299.424,252.011,276.998,279.693z"/>
	<path style="opacity:0.58;fill:#FFFFFF;" d="M278.3,364.621c-4.662-2.083-18.686,5.44-15.598,26.907
		c3.087,21.468,36.25,293.78,36.93,300.099c0.973,9.045,10.676,22.502,19.69,21.939c8.421-0.526,19.477-2.678,17.292-23.735
		c-2.185-21.057-43.76-293.562-45.084-302.631C290.207,378.131,285.783,367.966,278.3,364.621z"/>
	<path style="opacity:0.58;fill:#FFFFFF;" d="M345.018,190.898c-1.084,3.879-0.358,7.996-0.941,11.963
		c-1.104,7.507-6.707,13.773-10.239,20.654c-1.058,2.061-1.947,4.356-1.294,6.568c0.966,3.277,5.024,5.244,8.88,5.742
		c1.602,0.207,3.289,0.222,4.754-0.34c2.269-0.869,3.563-2.916,4.6-4.867c6.975-13.107,9.471-28.035,7.102-42.476
		C356.449,179.419,346.424,185.867,345.018,190.898z"/>
	<path style="opacity:0.58;fill:#FFFFFF;" d="M274.546,785.764c-2.262,6.938-2.354,14.543-2.414,21.944
		c-0.095,11.565-0.189,23.129-0.284,34.694c-0.041,5.046-0.078,10.149,0.857,15.03c0.935,4.881,2.95,9.594,6.289,12.427
		c3.338,2.833,8.131,3.402,11.589,0.552c4.276-3.525,5.239-10.591,5.78-16.814c1.699-19.555,3.178-39.165,3.216-58.774
		c0.016-8.144-0.77-20.85-8.528-23.503C284.08,768.935,276.87,778.635,274.546,785.764z"/>
</g>
<g>
	<path style="fill:#AADBFB;" d="M806.71,1872.55l-132.969-28.891l19.989,76.634c0,0,0,33,31.36,32.106
		c27.535-0.784,21.935-24.528,36.618-23.908c14.683,0.62,9.968,9.586,19.578,17.36c11.239,9.095,39.609,9.095,50.848,0
		c9.609-7.774,4.895-16.74,19.578-17.36s9.083,23.124,36.618,23.908c31.361,0.894,31.361-32.106,31.361-32.106l21.874-76.634
		L806.71,1872.55z"/>
	<path style="fill:#85C2F9;" d="M892.332,1937.264c-28.877-0.784-23.004-24.529-38.403-23.909
		c-15.399,0.62-10.455,9.587-20.532,17.361c-11.787,9.094-41.54,9.094-53.326,0c-10.078-7.774-5.133-16.741-20.532-17.361
		c-15.399-0.62-9.526,23.125-38.403,23.909c-14.26,0.387-22.334-5.598-26.91-12.502c1.358,9.089,7.052,28.063,30.934,27.383
		c27.535-0.784,21.935-24.528,36.618-23.908c14.683,0.619,9.969,9.586,19.578,17.36c11.239,9.094,39.609,9.094,50.848,0
		c9.609-7.774,4.895-16.741,19.578-17.36c14.683-0.62,9.083,23.124,36.618,23.908c24.036,0.685,29.649-18.54,30.961-27.559
		C914.806,1931.564,906.713,1937.654,892.332,1937.264z"/>
	<path style="fill:#AADBFB;" d="M863.765,1303.819c-9.088-7.801-17.938-13.561-21.079-22.321
		c-6.465-18.027-6.821-69.323-6.821-69.323h-56.423c0,0-0.356,51.296-6.821,69.323c-3.142,8.761-11.991,14.521-21.079,22.321
		H863.765z"/>
	<path style="fill:#AADBFB;" d="M933.542,1397.639c-5.014-37.202-36.946-70.685-69.777-93.819h-56.111h-56.111
		c-32.831,23.135-64.763,56.617-69.777,93.819c-5.014,37.202-8.023,446.021-8.023,446.021l42.49,54.171h91.422h91.421l42.49-54.171
		C941.564,1843.659,938.556,1434.841,933.542,1397.639z"/>
	<g>
		<path style="fill:#85C2F9;" d="M933.542,1397.639c-5.014-37.202-36.946-70.685-69.777-93.819
			c-9.087-7.802-17.937-13.562-21.079-22.321c-6.465-18.027-6.821-69.323-6.821-69.323h-19.841c0,0,0.356,51.296,6.821,69.323
			c3.142,8.76,11.991,14.52,21.079,22.321c32.831,23.135,64.763,56.617,69.777,93.819c5.015,37.202,8.023,446.021,8.023,446.021
			s-4.723,95.813-42.312,107.449c2.521,0.73,5.458,1.192,8.919,1.291c31.361,0.893,31.361-32.106,31.361-32.106l21.874-76.634
			C941.564,1843.659,938.556,1434.841,933.542,1397.639z"/>
	</g>
	<polygon style="fill:#85C2F9;" points="929.611,1843.659 705.57,1843.659 929.611,1858.898 	"/>
	<g>
		<path style="fill:#304298;" d="M837.069,1242.857h-58.833c-4.643,0-8.406-3.764-8.406-8.406v-29.897
			c0-4.643,3.764-8.406,8.406-8.406h58.833c4.643,0,8.406,3.764,8.406,8.406v29.897
			C845.476,1239.094,841.712,1242.857,837.069,1242.857z"/>
		<path style="fill:#304298;" d="M840.533,1253.582h-65.075c-1.635,0-2.96-1.326-2.96-2.961v-1.003c0-1.635,1.325-2.961,2.96-2.961
			h65.075c1.635,0,2.961,1.326,2.961,2.961v1.003C843.493,1252.256,842.168,1253.582,840.533,1253.582z"/>
		<g>
			<rect x="776.444" y="1202.883" style="fill:#223466;" width="5.167" height="39.975"/>
			<rect x="787.605" y="1202.883" style="fill:#223466;" width="5.167" height="39.975"/>
			<rect x="800.419" y="1202.883" style="fill:#223466;" width="5.167" height="39.975"/>
			<rect x="812.82" y="1202.883" style="fill:#223466;" width="5.168" height="39.975"/>
			<rect x="824.188" y="1202.883" style="fill:#223466;" width="5.167" height="39.975"/>
			<rect x="833.281" y="1202.883" style="fill:#223466;" width="5.167" height="39.975"/>
		</g>
		<path style="fill:#405CC6;" d="M838.483,1200.589h-62.097c-0.829,0-1.507-0.679-1.507-1.508l0,0c0-0.829,0.678-1.508,1.507-1.508
			h62.097c0.829,0,1.508,0.679,1.508,1.508l0,0C839.991,1199.91,839.313,1200.589,838.483,1200.589z"/>
	</g>
	<path style="opacity:0.58;fill:#FFFFFF;" d="M731.475,1336.926c-6.263,6.357-13.409,14.393-12.094,24.13
		c0.838,6.208,5.065,11.062,9.82,13.479c4.755,2.419,10.026,2.821,15.185,3.193c16.688,1.205,33.376,2.409,50.064,3.613
		c7.852,0.567,17.019,0.462,21.961-7.064c2.283-3.477,3.196-7.983,3.666-12.383c1.459-13.664-1.412-28.91-10.326-37.248
		c-5.028-4.703-15.047-4.623-23.832-5.828C775.928,1317.448,752.735,1315.342,731.475,1336.926z"/>
	<path style="opacity:0.58;fill:#FFFFFF;" d="M785.445,1262.814c-1.996,10.943-3.992,21.887-5.989,32.831
		c-0.324,1.775-0.636,3.671,0.064,5.335c0.632,1.501,2.007,2.574,3.473,3.284c5.333,2.584,12.448,0.588,15.66-4.394
		c2.762-4.285,2.599-9.757,2.34-14.849c-0.245-4.827-0.491-9.655-0.736-14.483c-0.208-4.098-0.643-11.18-5.15-13.078
		C790.855,1255.67,786.206,1258.644,785.445,1262.814z"/>
	<path style="opacity:0.58;fill:#FFFFFF;" d="M740.382,1413.057c-4.354-2.895-19.237,3.02-18.953,26.238
		c0.285,23.219-2.06,316.862-2.203,323.663c-0.206,9.734,7.677,25.433,16.691,26.161c8.419,0.682,19.664,0.025,20.222-22.625
		s-5.417-317.735-5.557-327.548C750.444,1429.135,747.371,1417.705,740.382,1413.057z"/>
	<path style="opacity:0.58;fill:#FFFFFF;" d="M708.07,1906.517c1.361,4.629,2.852,9.477,6.314,12.837
		c3.463,3.361,9.566,4.521,13.023,1.155c1.825-1.777,2.544-4.377,3.116-6.86c4.139-17.975,13.357-54.75-14.203-57.181
		C687.909,1853.963,704.754,1895.244,708.07,1906.517z"/>
	<path style="opacity:0.58;fill:#FFFFFF;" d="M771.614,1884.739c2.031,8.049,4.072,16.125,7.227,23.847
		c1.854,4.539,4.206,9.086,8.162,12.215c1.911,1.513,5.007,2.555,6.711,0.838c0.87-0.875,1.018-2.169,1.111-3.364
		c0.987-12.655,0.832-25.389-0.461-38.02c-0.808-7.897-0.301-17.171-8.933-21.075c-4.55-2.059-12.624-2.623-16.351,1.318
		C763.751,1866.133,770.042,1878.514,771.614,1884.739z"/>
</g>
<g>
	<path style="fill:#AADBFB;" d="M449.428,1559.223c3.345-19.841,32.091-32.961,32.236-85.977
		c0.165-60.455-32.369-90.528-59.843-101.916c-9.087-7.802-17.938-13.562-21.079-22.322c-6.464-18.026-6.82-69.322-6.82-69.322
		h-56.424c0,0-0.356,51.296-6.82,69.322c-3.142,8.761-11.991,14.521-21.079,22.322c-27.474,11.388-56.862,41.461-56.697,101.916
		c0.145,53.016,28.104,66.136,31.45,85.977c3.345,19.842-3.616,313.327-3.616,313.327h0.029v47.743c0,0,0,33,23.629,32.106
		c20.746-0.784,16.527-24.528,27.59-23.908c11.064,0.62,7.511,9.586,14.752,17.36c8.468,9.095,29.844,9.095,38.312,0
		c7.24-7.774,3.688-16.74,14.751-17.36c11.063-0.62,6.844,23.124,27.59,23.908c23.629,0.894,23.629-32.106,23.629-32.106v-47.743
		h-0.332C450.685,1872.55,446.083,1579.064,449.428,1559.223z"/>
	<g>
		<path style="fill:#85C2F9;" d="M449.428,1559.351c3.345-19.842,32.091-32.961,32.236-85.977
			c0.165-60.456-32.369-90.528-59.843-101.917c-9.087-7.801-17.938-13.561-21.079-22.321c-6.464-18.027-6.82-69.322-6.82-69.322
			H379.04c0,0,0.356,51.295,6.82,69.322c3.142,8.761,11.991,14.521,21.079,22.321c27.474,11.389,60.008,41.461,59.843,101.917
			c-0.145,53.016-28.891,66.135-32.236,85.977c-3.345,19.841,1.256,313.326,1.256,313.326h0.332v47.743
			c0,0-0.004,24.835-15.434,30.83c1.891,0.723,4.094,1.18,6.686,1.277c23.629,0.893,23.629-32.107,23.629-32.107v-47.743h-0.332
			C450.685,1872.677,446.083,1579.191,449.428,1559.351z"/>
	</g>
	<path style="fill:#85C2F9;" d="M427.388,1941.239c-20.747-0.784-16.527-24.529-27.59-23.909
		c-11.064,0.62-7.511,9.586-14.751,17.361c-8.468,9.094-29.844,9.094-38.312,0c-7.24-7.775-3.688-16.741-14.752-17.361
		c-11.063-0.62-6.844,23.125-27.59,23.909c-23.629,0.893-23.629-32.107-23.629-32.107v11.161c0,0,0,33,23.629,32.106
		c20.746-0.783,16.527-24.528,27.59-23.908c11.064,0.62,7.511,9.586,14.752,17.36c8.468,9.095,29.844,9.095,38.312,0
		c7.24-7.774,3.688-16.74,14.751-17.36c11.063-0.62,6.844,23.125,27.59,23.908c23.629,0.894,23.629-32.106,23.629-32.106v-11.161
		C451.017,1909.132,451.017,1942.132,427.388,1941.239z"/>
	<g>
		<path style="fill:#304298;" d="M394.632,1316.018h-58.832c-4.642,0-8.406-3.764-8.406-8.406v-29.897
			c0-4.643,3.764-8.406,8.406-8.406h58.832c4.643,0,8.406,3.764,8.406,8.406v29.897
			C403.038,1312.254,399.275,1316.018,394.632,1316.018z"/>
		<path style="fill:#304298;" d="M398.096,1326.742H333.02c-1.635,0-2.961-1.325-2.961-2.961v-1.003c0-1.635,1.326-2.96,2.961-2.96
			h65.075c1.635,0,2.96,1.325,2.96,2.96v1.003C401.056,1325.417,399.73,1326.742,398.096,1326.742z"/>
		<g>
			<rect x="334.007" y="1276.043" style="fill:#223466;" width="5.167" height="39.975"/>
			<rect x="345.168" y="1276.043" style="fill:#223466;" width="5.167" height="39.975"/>
			<rect x="357.982" y="1276.043" style="fill:#223466;" width="5.167" height="39.975"/>
			<rect x="370.383" y="1276.043" style="fill:#223466;" width="5.167" height="39.975"/>
			<rect x="381.75" y="1276.043" style="fill:#223466;" width="5.167" height="39.975"/>
			<rect x="390.844" y="1276.043" style="fill:#223466;" width="5.167" height="39.975"/>
		</g>
		<path style="fill:#405CC6;" d="M396.046,1273.749H333.95c-0.829,0-1.508-0.679-1.508-1.508l0,0c0-0.829,0.679-1.507,1.508-1.507
			h62.097c0.829,0,1.507,0.678,1.507,1.507l0,0C397.554,1273.07,396.875,1273.749,396.046,1273.749z"/>
	</g>
	<path style="opacity:0.58;fill:#FFFFFF;" d="M331.298,1569.233c-3.317-2.608-14.857,2.192-14.933,22.344
		c-0.076,20.151-5.616,274.87-5.813,280.768c-0.282,8.44,5.59,22.236,12.525,23.069c6.477,0.778,15.147,0.459,15.865-19.181
		s-0.132-275.794-0.115-284.311C338.845,1583.407,336.623,1573.422,331.298,1569.233z"/>
	<path style="opacity:0.58;fill:#FFFFFF;" d="M282.274,1426.121c-0.424,4.769-0.087,9.682,2.066,14.029
		c3.596,7.262,11.762,11.986,20.213,14.847c16.28,5.511,35.087,5.382,51.548-0.356c4.38-1.526,8.666-3.477,12.045-6.371
		c3.77-3.23,6.214-7.481,7.774-11.865c5.045-14.187,0.74-30.44-10.851-40.966c-11.739-10.66-34.543-16.665-51.1-10.639
		C295.819,1391.407,283.731,1409.733,282.274,1426.121z"/>
	<path style="opacity:0.58;fill:#FFFFFF;" d="M342.699,1343.535c-0.181,5.594-1.66,11.141-4.288,16.082
		c-1.718,3.23-3.909,7.279-1.704,10.2c1.185,1.57,3.306,2.136,5.273,2.144c5.242,0.021,10.315-3.513,12.114-8.437
		c0.625-1.711,0.879-3.532,1.129-5.337c0.837-6.045,1.673-12.09,2.51-18.135c0.712-5.146-1.203-11.325-7.661-10.441
		C343.166,1330.557,342.868,1338.318,342.699,1343.535z"/>
	<path style="fill:#85C2F9;" d="M434.547,1559.351c0,0-73.368,0.128-72.128,0c1.24-0.128,40.922-2.607,63.244-17.075
		c22.321-14.468,39.269-35.549,39.269-35.549v13.641L434.547,1559.351z"/>
</g>
<g>
	<path style="fill:#AADBFB;" d="M1299.796,1571.966c11.752-4.759,39.314-17.402,40.135-76.927
		c0.82-59.5-26.892-76.843-66.662-102.592h0.313c-9.088-7.801-17.938-13.561-21.079-22.321c-6.464-18.027-6.82-69.322-6.82-69.322
		h-56.424c0,0-0.355,51.295-6.82,69.322c-3.142,8.761-11.991,14.521-21.079,22.321h0.485
		c-39.765,25.809-67.479,43.17-66.584,102.693s28.472,72.139,40.23,76.885c18.137,7.321,13.486,14.055,13.952,25.629
		s-45.242,23.147-47.924,53.736c-2.507,28.599-1.889,199.092-1.798,221.159h-0.066v47.743c0,0,0,33,32.795,32.106
		c28.794-0.783,22.938-24.528,38.293-23.908s10.425,9.586,20.474,17.36c11.753,9.095,41.42,9.095,53.174,0
		c10.049-7.774,5.118-16.74,20.474-17.36c15.355-0.62,9.499,23.125,38.293,23.908c32.795,0.894,32.795-32.106,32.795-32.106v-47.743
		h-0.017c0.063-21.67,0.476-192.618-2.07-221.255c-2.72-30.586-46.083-42.102-45.631-53.676
		C1288.686,1586.045,1281.668,1579.307,1299.796,1571.966z"/>
	<g>
		<path style="fill:#85C2F9;" d="M1299.796,1571.966c11.752-4.759,39.314-17.402,40.135-76.927
			c0.82-59.5-26.892-76.843-66.662-102.592h0.313c-9.088-7.801-17.938-13.561-21.079-22.321c-6.464-18.027-6.82-69.322-6.82-69.322
			h-31.416c0,0,0.356,51.295,6.821,69.322c3.142,8.761,11.991,14.521,21.079,22.321h-0.313
			c39.77,25.749,67.482,43.092,66.662,102.592c-0.821,59.524-28.383,72.168-40.135,76.927c-18.128,7.341-11.11,14.079-11.562,25.653
			c-0.451,11.574,42.911,23.09,45.631,53.676c2.546,28.637,2.133,199.585,2.07,221.255h0.017v47.743c0,0-0.004,20.457-16.016,28.721
			c3.584,1.912,8.259,3.213,14.636,3.386c32.795,0.894,32.795-32.106,32.795-32.106v-47.743h-0.017
			c0.063-21.67,0.476-192.618-2.07-221.255c-2.72-30.586-46.083-42.102-45.631-53.676
			C1288.686,1586.045,1281.668,1579.307,1299.796,1571.966z"/>
	</g>
	<path style="fill:#85C2F9;" d="M1303.157,1935.785c-28.794-0.775-22.938-24.272-38.293-23.659
		c-15.355,0.614-10.425,9.486-20.474,17.181c-11.753,8.999-41.421,8.999-53.174,0c-10.049-7.694-5.119-16.566-20.474-17.181
		c-15.355-0.613-9.499,22.884-38.293,23.659c-32.795,0.884-32.795-31.771-32.795-31.771v16.361c0,0,0,32.656,32.795,31.772
		c28.794-0.775,22.938-24.272,38.293-23.659s10.425,9.486,20.474,17.18c11.753,8.999,41.421,8.999,53.174,0
		c10.049-7.693,5.118-16.566,20.474-17.18c15.355-0.613,9.499,22.884,38.293,23.659c32.795,0.884,32.795-31.772,32.795-31.772
		v-16.361C1335.953,1904.014,1335.953,1936.669,1303.157,1935.785z"/>
	<g>
		<path style="fill:#304298;" d="M1246.044,1339.052h-58.833c-4.642,0-8.406-3.764-8.406-8.406v-29.897
			c0-4.643,3.764-8.406,8.406-8.406h58.833c4.643,0,8.406,3.764,8.406,8.406v29.897
			C1254.45,1335.288,1250.687,1339.052,1246.044,1339.052z"/>
		<path style="fill:#304298;" d="M1249.508,1349.776h-65.076c-1.635,0-2.96-1.325-2.96-2.961v-1.003c0-1.635,1.325-2.96,2.96-2.96
			h65.076c1.635,0,2.96,1.325,2.96,2.96v1.003C1252.468,1348.451,1251.143,1349.776,1249.508,1349.776z"/>
		<g>
			<rect x="1185.419" y="1299.077" style="fill:#223466;" width="5.167" height="39.975"/>
			<rect x="1196.58" y="1299.077" style="fill:#223466;" width="5.167" height="39.975"/>
			<rect x="1209.394" y="1299.077" style="fill:#223466;" width="5.167" height="39.975"/>
			<rect x="1221.795" y="1299.077" style="fill:#223466;" width="5.167" height="39.975"/>
			<rect x="1233.162" y="1299.077" style="fill:#223466;" width="5.167" height="39.975"/>
			<rect x="1242.256" y="1299.077" style="fill:#223466;" width="5.167" height="39.975"/>
		</g>
		<path style="fill:#405CC6;" d="M1247.458,1296.783h-62.096c-0.83,0-1.508-0.679-1.508-1.508l0,0c0-0.829,0.678-1.508,1.508-1.508
			h62.096c0.829,0,1.508,0.679,1.508,1.508l0,0C1248.966,1296.104,1248.287,1296.783,1247.458,1296.783z"/>
	</g>
	<path style="opacity:0.58;fill:#FFFFFF;" d="M1125.828,1449.251c-0.38,2.637-0.574,5.44,0.203,7.931
		c1.88,6.031,8.049,7.186,13.125,7.412c9.466,0.423,18.937,0.748,28.398,1.268c66.502,3.651,66.357-22.837,63.77-28.147
		c-7.591-15.577-21.658-24.49-35.824-27.451C1169.069,1404.74,1131.838,1407.524,1125.828,1449.251z"/>
	<path style="opacity:0.58;fill:#FFFFFF;" d="M1133.788,1873.313c2.097,17.592,17.634,20.997,24.912,17.287
		c5.388-2.746,8.786-10.256,10.05-17.836c1.264-7.579-0.4-199.856,0.325-204.3c3.485-21.358,21.253-37.955,18.674-46.688
		c-3.184-10.779-11.487-10.207-19.707-8.964c-19.676,2.976-32.008,31.748-34.613,54.103
		C1131.134,1686.59,1132.558,1862.999,1133.788,1873.313z"/>
	<path style="opacity:0.58;fill:#FFFFFF;" d="M1192.59,1368.578c-0.437,3.897-2.08,7.578-2.563,11.471
		c-0.482,3.892,0.611,8.452,4.094,10.256c3.954,2.047,9.029-0.668,11.125-4.596c2.096-3.928,2.018-8.609,1.887-13.06
		c-0.147-5.026,0.74-14.288-5.538-16.349C1193.574,1353.668,1193.154,1363.541,1192.59,1368.578z"/>
	<path style="fill:#85C2F9;" d="M1257.155,1579.747h-64.254c0,0,43.136-4.669,67.47-16.375s36.624-23.201,43.751-33.86
		c7.127-10.659,16.345-10.29,16.345-10.29l-9.586,26.86l-39.45,36.554L1257.155,1579.747z"/>
</g>
<g>
	<path style="fill:#AADBFB;" d="M1743.053,1822.946c0-38.855-41.336-336.475-40.51-355.489s23.148-42.162,35.549-57.87
		c12.401-15.708,17.67-68.499,0.827-94.246c-16.686-25.506-38.856-37.202-61.861-54.05c-9.087-7.801-17.938-13.562-21.079-22.322
		c-6.464-18.026-6.82-69.322-6.82-69.322h-56.423c0,0-0.356,51.296-6.821,69.322c-3.142,8.761-11.991,14.521-21.079,22.322
		c-23.005,16.848-45.175,28.544-61.861,54.05c-16.843,25.747-11.574,78.538,0.827,94.246c12.4,15.708,34.722,38.855,35.548,57.87
		c0.827,19.015-40.509,316.634-40.509,355.489c0,38.856,0,49.604,0,49.604h0.013v47.743c0,0,0,33,33.903,32.106
		c29.768-0.784,23.713-24.528,39.587-23.908s10.777,9.586,21.165,17.36c12.15,9.095,42.821,9.095,54.971,0
		c10.388-7.774,5.291-16.74,21.165-17.36s9.819,23.124,39.587,23.908c33.903,0.894,33.903-32.106,33.903-32.106v-47.743h-0.084
		C1743.053,1872.55,1743.053,1861.803,1743.053,1822.946z"/>
	<g>
		<path style="fill:#85C2F9;" d="M1743.053,1822.946c0-38.855-41.337-336.475-40.51-355.489
			c0.826-19.015,23.148-42.162,35.549-57.87c12.401-15.708,17.67-68.499,0.827-94.246c-16.686-25.506-38.856-37.202-61.86-54.05
			c-9.088-7.801-17.938-13.562-21.079-22.322c-6.465-18.026-6.821-69.322-6.821-69.322h-24.801c0,0,0.355,51.296,6.82,69.322
			c3.142,8.761,11.991,14.521,21.079,22.322c23.004,16.848,45.175,28.544,61.86,54.05c16.844,25.747,11.574,78.538-0.827,94.246
			c-12.4,15.708-34.722,38.855-35.548,57.87c-0.827,19.015,40.509,316.634,40.509,355.489c0,38.856,0,49.604,0,49.604h0.085v47.743
			c0,0-0.001,23.53-20.417,30.314c3.077,1.018,6.778,1.673,11.314,1.792c33.903,0.894,33.903-32.106,33.903-32.106v-47.743h-0.084
			C1743.053,1872.55,1743.053,1861.803,1743.053,1822.946z"/>
	</g>
	<path style="fill:#85C2F9;" d="M1709.233,1936.041c-29.767-0.776-23.713-24.273-39.587-23.66
		c-15.874,0.614-10.777,9.486-21.165,17.181c-12.15,8.999-42.821,8.999-54.971,0c-10.389-7.694-5.292-16.566-21.166-17.181
		c-15.874-0.613-9.82,22.884-39.587,23.66c-33.903,0.883-33.903-31.772-33.903-31.772v16.361c0,0,0,32.656,33.903,31.772
		c29.768-0.775,23.713-24.272,39.587-23.659s10.777,9.486,21.166,17.18c12.15,8.999,42.82,8.999,54.971,0
		c10.388-7.693,5.291-16.566,21.165-17.18s9.82,22.884,39.587,23.659c33.903,0.884,33.903-31.772,33.903-31.772v-16.361
		C1743.137,1904.269,1743.137,1936.924,1709.233,1936.041z"/>
	<g>
		<path style="fill:#304298;" d="M1650.363,1210.106h-58.833c-4.643,0-8.406-3.764-8.406-8.406v-29.897
			c0-4.643,3.764-8.406,8.406-8.406h58.833c4.643,0,8.406,3.764,8.406,8.406v29.897
			C1658.77,1206.343,1655.006,1210.106,1650.363,1210.106z"/>
		<path style="fill:#304298;" d="M1653.827,1220.831h-65.075c-1.635,0-2.96-1.325-2.96-2.961v-1.003c0-1.635,1.325-2.96,2.96-2.96
			h65.075c1.635,0,2.96,1.325,2.96,2.96v1.003C1656.787,1219.506,1655.462,1220.831,1653.827,1220.831z"/>
		<g>
			<rect x="1589.738" y="1170.132" style="fill:#223466;" width="5.167" height="39.975"/>
			<rect x="1600.899" y="1170.132" style="fill:#223466;" width="5.167" height="39.975"/>
			<rect x="1613.713" y="1170.132" style="fill:#223466;" width="5.167" height="39.975"/>
			<rect x="1626.114" y="1170.132" style="fill:#223466;" width="5.167" height="39.975"/>
			<rect x="1637.481" y="1170.132" style="fill:#223466;" width="5.167" height="39.975"/>
			<rect x="1646.575" y="1170.132" style="fill:#223466;" width="5.167" height="39.975"/>
		</g>
		<path style="fill:#405CC6;" d="M1651.777,1167.838h-62.097c-0.829,0-1.507-0.679-1.507-1.508l0,0c0-0.829,0.678-1.508,1.507-1.508
			h62.097c0.829,0,1.508,0.679,1.508,1.508l0,0C1653.285,1167.159,1652.606,1167.838,1651.777,1167.838z"/>
	</g>
	<path style="opacity:0.58;fill:#FFFFFF;" d="M1531.037,1303.571c-6.977,6.112-14.916,13.819-13.13,22.921
		c1.139,5.803,6.113,10.255,11.62,12.41c5.507,2.155,11.547,2.407,17.457,2.635c19.117,0.732,38.234,1.466,57.351,2.199
		c8.996,0.345,19.475,0.029,24.908-7.148c2.509-3.315,3.424-7.563,3.833-11.701c1.272-12.852-2.451-27.084-12.887-34.692
		c-5.886-4.292-17.34-3.979-27.419-4.9C1581.304,1284.246,1554.723,1282.821,1531.037,1303.571z"/>
	<path style="opacity:0.58;fill:#FFFFFF;" d="M1595.958,1234.16c-1.192,3.627-0.809,7.621-1.228,11.451
		c-0.559,5.112-2.542,9.881-4.304,14.648c-1.139,3.083-2.09,6.975-0.108,9.436c1.036,1.287,2.629,1.798,4.158,2.094
		c1.934,0.375,3.981,0.488,5.818-0.311c3.803-1.656,5.519-6.555,6.46-10.995c1.783-8.41,2.338-17.134,1.636-25.72
		c-0.292-3.571-1.436-7.127-4.996-6.895C1600.252,1228.074,1597.019,1230.932,1595.958,1234.16z"/>
	<path style="opacity:0.58;fill:#FFFFFF;" d="M1577.246,1475.178c-6.908,1.167-10.9,3.704-12.41,29.184
		c-1.51,25.479-35.131,349.46-35.886,356.908c-1.081,10.661,3.837,25.979,16.188,27.367c11.536,1.297,22.226-0.06,24.85-24.861
		c2.624-24.801,18.571-348.773,19.182-359.542S1589.231,1473.154,1577.246,1475.178z"/>
	<polygon style="fill:#85C2F9;" points="1678.125,1463.95 1608.685,1463.95 1695.36,1436.923 	"/>
</g>
<g>
	<path style="fill:#AADBFB;" d="M1673.13,396.422c-9.087-7.801-17.937-13.561-21.079-22.321
		c-6.465-18.027-6.821-69.323-6.821-69.323h-56.423c0,0-0.356,51.296-6.82,69.323c-3.142,8.761-11.992,14.521-21.079,22.321
		c-17.488,14.272-50.557,454.086-50.557,454.086v47.743c0,0,0,33,29.608,32.107c25.997-0.784,20.709-24.529,34.572-23.909
		c13.863,0.62,9.411,9.586,18.484,17.361c10.611,9.094,37.396,9.094,48.006,0c9.072-7.775,4.621-16.741,18.484-17.361
		c13.863-0.62,8.575,23.125,34.571,23.909c29.608,0.893,29.608-32.107,29.608-32.107v-47.743
		C1723.687,850.509,1690.618,410.694,1673.13,396.422z"/>
	<path style="fill:#85C2F9;" d="M1694.078,915.062c-25.996-0.784-20.708-24.529-34.572-23.909
		c-13.863,0.62-9.412,9.586-18.484,17.361c-10.611,9.094-37.396,9.094-48.007,0c-9.072-7.775-4.621-16.741-18.484-17.361
		c-13.863-0.62-8.575,23.125-34.572,23.909c-29.608,0.893-29.608-32.107-29.608-32.107v15.297c0,0,0,33,29.608,32.107
		c25.997-0.784,20.709-24.529,34.572-23.909c13.863,0.62,9.412,9.586,18.484,17.361c10.611,9.094,37.396,9.094,48.007,0
		c9.072-7.775,4.621-16.741,18.484-17.361c13.863-0.62,8.576,23.125,34.572,23.909c29.608,0.893,29.608-32.107,29.608-32.107
		v-15.297C1723.687,882.955,1723.687,915.955,1694.078,915.062z"/>
	<path style="opacity:0.58;fill:#FFFFFF;" d="M1578.003,428.669c-5.939,1.167-9.371,3.704-10.669,29.183
		c-1.298,25.479-30.202,349.461-30.851,356.909c-0.929,10.661,3.299,25.979,13.917,27.367c9.917,1.296,19.107-0.06,21.363-24.861
		c2.255-24.802,15.965-348.774,16.491-359.542C1588.78,446.957,1588.308,426.646,1578.003,428.669z"/>
	<g>
		<path style="fill:#85C2F9;" d="M1673.13,396.422c-9.087-7.801-17.937-13.561-21.079-22.321c-6.464-18.027-6.82-69.323-6.82-69.323
			h-24.801c0,0,0.355,51.296,6.82,69.323c3.142,8.761,11.991,14.521,21.079,22.321c17.488,14.272,50.557,454.086,50.557,454.086
			v47.743c0,0-0.004,22.122-16.26,29.649c2.974,1.396,6.686,2.314,11.453,2.458c29.608,0.893,29.608-32.107,29.608-32.107v-47.743
			C1723.687,850.509,1690.618,410.694,1673.13,396.422z"/>
	</g>
	<g>
		<path style="fill:#304298;" d="M1646.436,322.771h-58.833c-4.643,0-8.406-3.764-8.406-8.406v-29.897
			c0-4.643,3.764-8.406,8.406-8.406h58.833c4.643,0,8.406,3.763,8.406,8.406v29.897
			C1654.842,319.007,1651.078,322.771,1646.436,322.771z"/>
		<path style="fill:#304298;" d="M1649.899,333.496h-65.076c-1.635,0-2.96-1.326-2.96-2.96v-1.003c0-1.635,1.325-2.96,2.96-2.96
			h65.076c1.635,0,2.96,1.325,2.96,2.96v1.003C1652.86,332.17,1651.534,333.496,1649.899,333.496z"/>
		<g>
			<rect x="1585.811" y="282.797" style="fill:#223466;" width="5.167" height="39.974"/>
			<rect x="1596.971" y="282.797" style="fill:#223466;" width="5.167" height="39.974"/>
			<rect x="1609.785" y="282.797" style="fill:#223466;" width="5.167" height="39.974"/>
			<rect x="1622.187" y="282.797" style="fill:#223466;" width="5.167" height="39.974"/>
			<rect x="1633.554" y="282.797" style="fill:#223466;" width="5.167" height="39.974"/>
			<rect x="1642.647" y="282.797" style="fill:#223466;" width="5.167" height="39.974"/>
		</g>
		<path style="fill:#405CC6;" d="M1647.85,280.503h-62.097c-0.829,0-1.507-0.679-1.507-1.508l0,0c0-0.829,0.678-1.508,1.507-1.508
			h62.097c0.83,0,1.508,0.679,1.508,1.508l0,0C1649.357,279.824,1648.679,280.503,1647.85,280.503z"/>
	</g>
	<path style="opacity:0.58;fill:#FFFFFF;" d="M1593.822,365.384c-0.615,6.977-2.182,14.099-6.257,19.797
		c-1.838,2.57-4.147,4.794-5.796,7.489c-1.649,2.695-2.577,6.117-1.328,9.019c2.041,4.741,9.015,5.49,13.314,2.634
		c4.299-2.856,6.439-7.983,7.962-12.915c3.417-11.061,4.925-22.65,5.263-34.223c0.114-3.918-1.261-20.118-9.428-17.188
		C1592.13,341.942,1594.248,360.557,1593.822,365.384z"/>
	<path style="opacity:0.58;fill:#FFFFFF;" d="M1525.334,898.526c1.362,4.35,3.695,9.377,7.318,9.119
		c2.17-0.155,3.997-2.361,4.902-4.917s1.065-5.433,1.212-8.238c0.539-10.303,3.879-32.007-9.631-28.256
		C1516.952,869.616,1522.161,888.393,1525.334,898.526z"/>
	<path style="opacity:0.58;fill:#FFFFFF;" d="M1597.829,898.526c1.126,4.35,3.055,9.377,6.051,9.119
		c1.795-0.155,3.305-2.361,4.053-4.917s0.881-5.433,1.002-8.238c0.445-10.303,3.208-32.007-7.963-28.256
		C1590.898,869.616,1595.205,888.393,1597.829,898.526z"/>
</g>
<g>
	<path style="fill:#AADBFB;" d="M2452.68,556.706c-9.088-7.801-17.938-13.561-21.078-22.321c-6.465-18.027-6.82-69.323-6.82-69.323
		h-56.424c0,0-0.356,51.296-6.82,69.323c-3.143,8.761-11.992,14.521-21.08,22.321c-20.359,14.245-45.161,35.815-40.201,76.7
		c4.961,40.885,24.68,116.116,19.78,144.225c-3.836,22.007-15.233,72.879-15.233,72.879v47.743c0,0,0,33,25.559,32.107
		c22.439-0.784,17.876-24.529,29.842-23.909c11.967,0.62,8.125,9.586,15.956,17.361c9.159,9.094,32.28,9.094,41.439,0
		c7.831-7.775,3.989-16.741,15.955-17.361c11.967-0.62,7.403,23.125,29.843,23.909c25.559,0.893,25.559-32.107,25.559-32.107
		l-0.83-47.743c-3.261-14.677-11.188-50.872-15.023-72.879c-4.899-28.108,14.819-103.34,19.78-144.225
		C2497.842,592.521,2473.04,570.95,2452.68,556.706z"/>
	<g>
		<path style="fill:#85C2F9;" d="M2452.68,556.833c-9.088-7.801-17.938-13.56-21.078-22.321c-6.465-18.027-6.82-69.323-6.82-69.323
			h-19.016c0,0,0.356,51.296,6.82,69.323c3.143,8.761,11.992,14.521,21.079,22.321c20.36,14.244,45.162,35.815,40.202,76.7
			c-4.961,40.884-24.68,116.116-19.78,144.224c3.836,22.007,11.763,58.202,15.023,72.879l0.83,47.743
			c0,0-0.002,23.371-15.237,30.244c2.352,1.06,5.193,1.741,8.693,1.863c25.559,0.893,25.559-32.107,25.559-32.107l-0.83-47.743
			c-3.261-14.677-11.188-50.872-15.023-72.879c-4.899-28.108,14.819-103.34,19.78-144.224
			C2497.842,592.648,2473.04,571.077,2452.68,556.833z"/>
	</g>
	<path style="fill:#85C2F9;" d="M2463.396,915.03c-22.44-0.784-17.876-24.529-29.842-23.909c-11.967,0.62-8.125,9.586-15.956,17.361
		c-9.159,9.094-32.28,9.094-41.439,0c-7.831-7.775-3.989-16.741-15.956-17.361c-11.966-0.62-7.402,23.125-29.842,23.909
		c-25.559,0.893-25.559-32.107-25.559-32.107v15.328c0,0,0,33,25.559,32.107c22.439-0.784,17.876-24.529,29.842-23.909
		c11.967,0.62,8.125,9.586,15.956,17.361c9.159,9.094,32.28,9.094,41.439,0c7.831-7.775,3.989-16.741,15.956-17.361
		c11.966-0.62,7.401,23.125,29.842,23.909c25.559,0.893,25.559-32.107,25.559-32.107v-15.328
		C2488.955,882.923,2488.955,915.923,2463.396,915.03z"/>
	<g>
		<path style="fill:#304298;" d="M2425.985,504.601h-58.833c-4.643,0-8.406-3.764-8.406-8.406v-29.897
			c0-4.643,3.764-8.406,8.406-8.406h58.833c4.642,0,8.405,3.764,8.405,8.406v29.897
			C2434.391,500.837,2430.627,504.601,2425.985,504.601z"/>
		<path style="fill:#304298;" d="M2429.449,515.325h-65.076c-1.635,0-2.96-1.326-2.96-2.961v-1.003c0-1.635,1.325-2.96,2.96-2.96
			h65.076c1.635,0,2.96,1.326,2.96,2.96v1.003C2432.409,514,2431.084,515.325,2429.449,515.325z"/>
		<g>
			<rect x="2365.36" y="464.626" style="fill:#223466;" width="5.167" height="39.974"/>
			<rect x="2376.521" y="464.626" style="fill:#223466;" width="5.167" height="39.974"/>
			<rect x="2389.335" y="464.626" style="fill:#223466;" width="5.167" height="39.974"/>
			<rect x="2401.736" y="464.626" style="fill:#223466;" width="5.166" height="39.974"/>
			<rect x="2413.104" y="464.626" style="fill:#223466;" width="5.166" height="39.974"/>
			<rect x="2422.197" y="464.626" style="fill:#223466;" width="5.167" height="39.974"/>
		</g>
		<path style="fill:#405CC6;" d="M2427.399,462.332h-62.097c-0.829,0-1.508-0.678-1.508-1.507l0,0c0-0.83,0.679-1.508,1.508-1.508
			h62.097c0.829,0,1.507,0.678,1.507,1.508l0,0C2428.906,461.654,2428.229,462.332,2427.399,462.332z"/>
	</g>
	<path style="opacity:0.58;fill:#FFFFFF;" d="M2324.794,593.852c-2.194,4.616-3.7,10.664-0.208,14.396
		c2.736,2.925,7.277,2.984,11.281,2.835c11.498-0.429,22.997-0.858,34.496-1.287c3.4-0.127,7.164-0.408,9.525-2.858
		c1.441-1.495,2.101-3.563,2.623-5.573c2.081-8,2.72-16.375,1.877-24.599c-0.333-3.241-1.049-6.744-3.542-8.841
		c-1.511-1.27-3.476-1.841-5.396-2.294c-9.201-2.172-23.44-4.576-30.867,2.483C2336.616,575.69,2329.551,583.843,2324.794,593.852z"
		/>
	<path style="opacity:0.58;fill:#FFFFFF;" d="M2371.166,533.099c-0.193,2.248-0.696,4.458-1.284,6.636
		c-0.71,2.632-1.533,5.506-0.425,7.996c1.073,2.411,3.895,3.806,6.516,3.498s4.932-2.141,6.136-4.489
		c0.724-1.412,1.081-2.98,1.382-4.538c0.622-3.225,1.029-6.491,1.221-9.77c0.266-4.594-0.701-13.965-7.324-13.667
		C2370.721,519.065,2371.551,528.644,2371.166,533.099z"/>
	<path style="opacity:0.58;fill:#FFFFFF;" d="M2315.281,857.759c-0.302,10.612-0.045,21.239,0.768,31.824
		c0.191,2.484,0.424,5.012,1.383,7.312c0.958,2.3,2.768,4.375,5.168,5.042c2.534,0.704,5.327-0.3,7.259-2.084
		c1.931-1.785,3.107-4.246,3.897-6.754c2.228-7.076,1.67-14.718,0.519-22.046c-1.03-6.557-1.835-19.72-6.972-24.536
		C2319.869,839.548,2315.439,852.191,2315.281,857.759z"/>
	<polygon style="fill:#85C2F9;" points="2405.766,775.149 2460.64,775.149 2460.64,758.615 	"/>
</g>
<g>
	<path style="fill:#AADBFB;" d="M1282.435,331.801c-2.812-23.897-197.838-141.976-197.838-141.976h-0.789v-85.396H949.373v85.396
		c0,0-195.027,118.079-197.838,141.976c-2.812,23.897-11.246,517.299,0,536.979c11.246,19.68,77.313,61.852,77.313,61.852h168.229
		h39.815h168.229c0,0,66.068-42.171,77.314-61.852C1293.681,849.101,1285.247,355.698,1282.435,331.801z"/>
	<path style="fill:#85C2F9;" d="M1282.435,331.801c-2.812-23.897-197.838-141.976-197.838-141.976h-0.789v-85.396h-36.548v85.396
		h0.789c0,0,195.027,118.079,197.838,141.976c2.812,23.897,11.246,517.299,0,536.979c-11.246,19.68-77.313,61.852-77.313,61.852
		h36.548c0,0,66.068-42.171,77.314-61.852C1293.681,849.101,1285.246,355.698,1282.435,331.801z"/>
	<g>
		<path style="fill:#304298;" d="M1093.677,162.414H941.285c-4.014,0-7.268-3.254-7.268-7.268v-48.721
			c0-4.014,3.254-7.268,7.268-7.268h152.392c4.014,0,7.268,3.254,7.268,7.268v48.721
			C1100.945,159.16,1097.69,162.414,1093.677,162.414z"/>
		<path style="fill:#304298;" d="M1089.655,189.825H944.516c-2.523,0-4.568-2.045-4.568-4.568l0,0c0-2.523,2.045-4.569,4.568-4.569
			h145.139c2.523,0,4.568,2.045,4.568,4.569l0,0C1094.224,187.78,1092.178,189.825,1089.655,189.825z"/>
		<rect x="941.353" y="112.512" style="fill:#223466;" width="4.5" height="48.312"/>
		<rect x="951.385" y="112.512" style="fill:#223466;" width="4.5" height="48.312"/>
		<rect x="961.417" y="112.512" style="fill:#223466;" width="4.5" height="48.312"/>
		<rect x="971.449" y="112.512" style="fill:#223466;" width="4.5" height="48.312"/>
		<rect x="981.481" y="112.512" style="fill:#223466;" width="4.5" height="48.312"/>
		<rect x="991.513" y="112.512" style="fill:#223466;" width="4.499" height="48.312"/>
		<rect x="1001.545" y="112.512" style="fill:#223466;" width="4.5" height="48.312"/>
		<rect x="1011.577" y="112.512" style="fill:#223466;" width="4.5" height="48.312"/>
		<rect x="1021.609" y="112.512" style="fill:#223466;" width="4.499" height="48.312"/>
		<rect x="1031.641" y="112.512" style="fill:#223466;" width="4.5" height="48.312"/>
		<rect x="1041.673" y="112.512" style="fill:#223466;" width="4.5" height="48.312"/>
		<rect x="1051.705" y="112.512" style="fill:#223466;" width="4.5" height="48.312"/>
		<rect x="1061.736" y="112.512" style="fill:#223466;" width="4.5" height="48.312"/>
		<rect x="1071.769" y="112.512" style="fill:#223466;" width="4.5" height="48.312"/>
		<rect x="1081.8" y="112.512" style="fill:#223466;" width="4.5" height="48.312"/>
		<rect x="1091.832" y="112.512" style="fill:#223466;" width="4.5" height="48.312"/>
		<path style="fill:#405CC6;" d="M1092.124,107.064H941.906c-1.077,0-1.958-0.881-1.958-1.959l0,0c0-1.077,0.881-1.958,1.958-1.958
			h150.217c1.077,0,1.958,0.881,1.958,1.958l0,0C1094.082,106.183,1093.201,107.064,1092.124,107.064z"/>
	</g>
	<polygon style="opacity:0.35;fill:#85C2F9;" points="828.848,930.632 1016.985,884.243 1205.121,930.632 	"/>
	<polygon style="fill:#85C2F9;" points="1205.121,930.632 828.848,930.632 821.45,925.799 1213.864,924.906 	"/>
	<path style="opacity:0.58;fill:#FFFFFF;" d="M931.776,211.729l-122.003,93.81c-8.122,6.245-3.706,19.234,6.54,19.234h79.71
		c4.159,0,7.943-2.403,9.711-6.167l44.065-93.81c3.342-7.115-1.85-15.29-9.711-15.29h-1.773
		C935.951,209.505,933.651,210.287,931.776,211.729z"/>
	<path style="opacity:0.58;fill:#FFFFFF;" d="M801.476,356.314v478.818c0,5.775,4.681,10.455,10.455,10.455h65.202
		c5.774,0,10.455-4.681,10.455-10.455V356.314c0-5.774-4.681-10.455-10.455-10.455h-65.202
		C806.157,345.858,801.476,350.539,801.476,356.314z"/>
	<polygon style="fill:#85C2F9;" points="1250.423,331.625 1064.87,336.37 1257.275,355.347 	"/>
	<path style="fill:#85C2F9;" d="M1267.818,865.618c-1.581,1.054-143.382,3.163-143.382,3.163l129.149,12.124L1267.818,865.618z"/>
</g>
<g>
	<path style="fill:#AADBFB;" d="M2425.109,1404.447c3.898,0,7.089-3.189,7.089-7.088v-65.949c0-3.898-3.19-7.088-7.089-7.088h-12.24
		v-16.868c0-77.408-65.449-142.931-155.682-164.972v-86.649h-133.542v86.649c-90.231,22.041-155.682,87.563-155.682,164.972v16.868
		h-12.24c-3.898,0-7.088,3.189-7.088,7.088v65.949c0,3.898,3.189,7.088,7.088,7.088h12.24v65.131h-12.24
		c-3.898,0-7.088,3.19-7.088,7.089v65.949c0,3.897,3.189,7.088,7.088,7.088h12.24v65.131h-12.24c-3.898,0-7.088,3.189-7.088,7.088
		v65.949c0,3.898,3.189,7.088,7.088,7.088h12.24v65.131h-12.24c-3.898,0-7.088,3.189-7.088,7.088v65.949
		c0,3.898,3.189,7.088,7.088,7.088h12.24v7.028l0,0c0,39.688,17.217,76.246,46.145,105.429h352.616
		c28.929-29.183,46.145-65.74,46.145-105.429l0,0v-7.028h12.24c3.898,0,7.089-3.189,7.089-7.088v-65.949
		c0-3.898-3.19-7.088-7.089-7.088h-12.24v-65.131h12.24c3.898,0,7.089-3.189,7.089-7.088v-65.949c0-3.898-3.19-7.088-7.089-7.088
		h-12.24v-65.131h12.24c3.898,0,7.089-3.19,7.089-7.088v-65.949c0-3.898-3.19-7.089-7.089-7.089h-12.24v-65.131H2425.109z"/>
	<path style="fill:#85C2F9;" d="M2425.109,1404.447c3.898,0,7.089-3.189,7.089-7.088v-65.949c0-3.898-3.19-7.088-7.089-7.088h-12.24
		v-16.868c0-77.408-65.45-142.931-155.682-164.972v-86.649h-50.88v86.649c90.231,22.041,155.682,87.563,155.682,164.972v16.868
		h12.24c3.898,0,7.089,3.189,7.089,7.088v65.949c0,3.898-3.19,7.088-7.089,7.088h-12.24v65.131h12.24
		c3.898,0,7.089,3.19,7.089,7.089v65.949c0,3.897-3.19,7.088-7.089,7.088h-12.24v65.131h12.24c3.898,0,7.089,3.189,7.089,7.088
		v65.949c0,3.898-3.19,7.088-7.089,7.088h-12.24v65.131h12.24c3.898,0,7.089,3.189,7.089,7.088v65.949
		c0,3.898-3.19,7.088-7.089,7.088h-12.24v7.028c0,39.688-17.216,76.246-46.145,105.429h50.88
		c28.929-29.183,46.145-65.74,46.145-105.429v-7.028h12.24c3.898,0,7.089-3.189,7.089-7.088v-65.949c0-3.898-3.19-7.088-7.089-7.088
		h-12.24v-65.131h12.24c3.898,0,7.089-3.189,7.089-7.088v-65.949c0-3.898-3.19-7.088-7.089-7.088h-12.24v-65.131h12.24
		c3.898,0,7.089-3.19,7.089-7.088v-65.949c0-3.898-3.19-7.089-7.089-7.089h-12.24v-65.131H2425.109z"/>
	<path style="fill:#85C2F9;" d="M2361.989,1404.447c-10.679,4.218-394.025,0-394.025,0l416.029,25.303L2361.989,1404.447z"/>
	<path style="fill:#85C2F9;" d="M2376.428,1548.884c-10.68,4.217-394.025,0-394.025,0l416.029,25.303L2376.428,1548.884z"/>
	<path style="fill:#85C2F9;" d="M2361.989,1694.657c-10.679,4.217-394.025,0-394.025,0l416.029,25.303L2361.989,1694.657z"/>
	<path style="fill:#85C2F9;" d="M2361.989,1839.299c-10.679,4.217-394.025,0-394.025,0l416.029,25.303L2361.989,1839.299z"/>
	<path style="opacity:0.58;fill:#FFFFFF;" d="M2245.092,1348.044h-283.074c-3.914,0-7.116-3.202-7.116-7.116l0,0
		c0-3.914,3.202-7.117,7.116-7.117h283.074c3.914,0,7.116,3.203,7.116,7.117l0,0
		C2252.208,1344.842,2249.006,1348.044,2245.092,1348.044z"/>
	<path style="opacity:0.58;fill:#FFFFFF;" d="M2245.092,1496.434h-283.074c-3.914,0-7.116-3.202-7.116-7.116l0,0
		c0-3.914,3.202-7.116,7.116-7.116h283.074c3.914,0,7.116,3.202,7.116,7.116l0,0
		C2252.208,1493.231,2249.006,1496.434,2245.092,1496.434z"/>
	<path style="opacity:0.58;fill:#FFFFFF;" d="M2245.092,1637.707h-283.074c-3.914,0-7.116-3.203-7.116-7.116l0,0
		c0-3.914,3.202-7.116,7.116-7.116h283.074c3.914,0,7.116,3.202,7.116,7.116l0,0
		C2252.208,1634.504,2249.006,1637.707,2245.092,1637.707z"/>
	<path style="opacity:0.58;fill:#FFFFFF;" d="M2245.092,1790.05h-283.074c-3.914,0-7.116-3.202-7.116-7.116l0,0
		c0-3.914,3.202-7.116,7.116-7.116h283.074c3.914,0,7.116,3.202,7.116,7.116l0,0
		C2252.208,1786.848,2249.006,1790.05,2245.092,1790.05z"/>
	<path style="opacity:0.58;fill:#FFFFFF;" d="M2028.977,1250.947c-1.275,8.071-1.356,17.053,3.578,23.566
		c4.574,6.039,12.406,8.546,19.858,9.914c8.886,1.631,18.63,1.983,26.357-2.697c7.93-4.806,12.122-13.928,14.742-22.822
		c3.81-12.936,5.262-26.463,8.882-39.453c3.619-12.99,9.853-25.92,20.813-33.774c3.674-2.633,8.245-5.303,8.706-9.799
		c2.562-24.98-57.099,5.14-63.848,10.39C2047.75,1202.074,2033.014,1225.395,2028.977,1250.947z"/>
	<g>
		<path style="fill:#304298;" d="M2266.612,1100.997h-152.392c-4.014,0-7.268-3.254-7.268-7.269v-48.721
			c0-4.014,3.254-7.268,7.268-7.268h152.392c4.014,0,7.269,3.254,7.269,7.268v48.721
			C2273.881,1097.743,2270.626,1100.997,2266.612,1100.997z"/>
		<path style="fill:#304298;" d="M2262.591,1128.408h-145.14c-2.522,0-4.568-2.046-4.568-4.568l0,0c0-2.523,2.046-4.569,4.568-4.569
			h145.14c2.523,0,4.568,2.046,4.568,4.569l0,0C2267.159,1126.362,2265.114,1128.408,2262.591,1128.408z"/>
		<rect x="2114.289" y="1051.094" style="fill:#223466;" width="4.5" height="48.312"/>
		<rect x="2124.321" y="1051.094" style="fill:#223466;" width="4.499" height="48.312"/>
		<rect x="2134.353" y="1051.094" style="fill:#223466;" width="4.5" height="48.312"/>
		<rect x="2144.385" y="1051.094" style="fill:#223466;" width="4.5" height="48.312"/>
		<rect x="2154.417" y="1051.094" style="fill:#223466;" width="4.5" height="48.312"/>
		<rect x="2164.449" y="1051.094" style="fill:#223466;" width="4.5" height="48.312"/>
		<rect x="2174.48" y="1051.094" style="fill:#223466;" width="4.5" height="48.312"/>
		<rect x="2184.513" y="1051.094" style="fill:#223466;" width="4.5" height="48.312"/>
		<rect x="2194.545" y="1051.094" style="fill:#223466;" width="4.5" height="48.312"/>
		<rect x="2204.576" y="1051.094" style="fill:#223466;" width="4.5" height="48.312"/>
		<rect x="2214.608" y="1051.094" style="fill:#223466;" width="4.5" height="48.312"/>
		<rect x="2224.641" y="1051.094" style="fill:#223466;" width="4.5" height="48.312"/>
		<rect x="2234.672" y="1051.094" style="fill:#223466;" width="4.5" height="48.312"/>
		<rect x="2244.704" y="1051.094" style="fill:#223466;" width="4.5" height="48.312"/>
		<rect x="2254.736" y="1051.094" style="fill:#223466;" width="4.5" height="48.312"/>
		<rect x="2264.768" y="1051.094" style="fill:#223466;" width="4.5" height="48.312"/>
		<path style="fill:#405CC6;" d="M2265.059,1045.647h-150.217c-1.077,0-1.959-0.882-1.959-1.959l0,0
			c0-1.077,0.882-1.959,1.959-1.959h150.217c1.078,0,1.959,0.882,1.959,1.959l0,0
			C2267.018,1044.766,2266.137,1045.647,2265.059,1045.647z"/>
	</g>
	<path style="opacity:0.35;fill:#85C2F9;" d="M2014.108,1952.673c0,0,1.941-14.761,60.981-29.521
		c59.039-14.76,100.889-13.705,100.889-13.705v43.226H2014.108z"/>
	<path style="opacity:0.35;fill:#85C2F9;" d="M2337.849,1952.673c0,0-1.941-14.761-60.981-29.521
		c-59.039-14.76-100.889-13.705-100.889-13.705v43.226H2337.849z"/>
	<path style="opacity:0.58;fill:#FFFFFF;" d="M2034.334,1918.915c6.384,10.197,14.293,20.673,25.875,23.927
		c8.197,2.303,18.114-0.085,22.722-7.246c4.548-7.068,2.905-16.488-0.492-24.176c-2.567-5.809-6.038-11.216-10.249-15.97
		c-3.342-3.772-7.143-7.132-10.303-11.058c-10.025-12.455-16.274-33.284-35.894-32.248c-20.731,1.096-14.04,23.151-8.512,35.46
		C2022.342,1898.426,2028.04,1908.863,2034.334,1918.915z"/>
</g>
<g>
	<path style="fill:#AADBFB;" d="M3209.273,1387.544c5.351,0,9.729-4.378,9.729-9.729v-80.427c0-5.351-4.378-9.729-9.729-9.729
		h-5.164c-11.934-95.202-130.867-169.977-275.848-169.977s-263.914,74.774-275.847,169.977h-5.461c-5.351,0-9.728,4.378-9.728,9.729
		v80.427c0,5.351,4.377,9.729,9.728,9.729h4.458v354.849h-4.458c-5.351,0-9.728,4.377-9.728,9.728v80.427
		c0,5.351,4.377,9.729,9.728,9.729h6.687c8.184,43.182,38.463,81.734,82.996,110.397h383.25
		c44.533-28.663,74.813-67.216,82.996-110.397h6.391c5.351,0,9.729-4.378,9.729-9.729v-80.427c0-5.351-4.378-9.728-9.729-9.728
		h-4.162v-354.849H3209.273z M3175.753,1681.656c0,0-72.722,0-83.235-35.047c-7.902-26.338-5.127-176.956,0.958-190.996
		c14.813-34.179,82.277-28.922,82.277-28.922V1681.656z"/>
	<g>
		<path style="fill:#85C2F9;" d="M3072.447,1455.614c-6.084,14.039-8.859,164.657-0.958,190.995
			c10.514,35.047,83.235,35.047,83.235,35.047v-1.515c-22.343-2.801-55.382-10.779-62.207-33.532
			c-7.902-26.338-5.127-176.956,0.958-190.995c9.421-21.738,40.135-27.522,61.249-28.855v-0.067
			C3154.725,1426.691,3087.26,1421.435,3072.447,1455.614z"/>
		<path style="fill:#85C2F9;" d="M3209.273,1387.544c5.351,0,9.729-4.378,9.729-9.729v-80.427c0-5.351-4.378-9.729-9.729-9.729
			h-5.164c-11.934-95.202-130.867-169.977-275.848-169.977c-3.522,0-7.023,0.058-10.514,0.146
			c140.177,3.514,253.689,76.942,265.333,169.831h5.164c5.351,0,9.729,4.378,9.729,9.729v80.427c0,5.351-4.378,9.729-9.729,9.729
			h-4.161v354.849h4.161c5.351,0,9.729,4.377,9.729,9.728v80.427c0,5.351-4.378,9.729-9.729,9.729h-6.391
			c-8.183,43.182-38.462,81.734-82.995,110.397h21.027c44.533-28.663,74.813-67.216,82.996-110.397h6.391
			c5.351,0,9.729-4.378,9.729-9.729v-80.427c0-5.351-4.378-9.728-9.729-9.728h-4.162v-354.849H3209.273z"/>
	</g>
	<polygon style="fill:#85C2F9;" points="3184.084,1387.544 2651.412,1387.544 3194.469,1412.076 	"/>
	<polygon style="fill:#85C2F9;" points="3184.084,1843.151 2653.835,1843.261 3194.469,1867.685 	"/>
	<path style="opacity:0.58;fill:#FFFFFF;" d="M3107.729,1304.746h-456.316c-2.892,0-5.258-2.366-5.258-5.257l0,0
		c0-2.892,2.366-5.257,5.258-5.257h456.316c2.891,0,5.257,2.365,5.257,5.257l0,0
		C3112.985,1302.38,3110.619,1304.746,3107.729,1304.746z"/>
	<path style="opacity:0.58;fill:#FFFFFF;" d="M3107.729,1761.229h-456.316c-2.892,0-5.258-2.365-5.258-5.257l0,0
		c0-2.892,2.366-5.257,5.258-5.257h456.316c2.891,0,5.257,2.365,5.257,5.257l0,0
		C3112.985,1758.864,3110.619,1761.229,3107.729,1761.229z"/>
	<rect x="2854.236" y="1065.947" style="fill:#AADBFB;" width="148.229" height="100.233"/>
	<g>
		<path style="fill:#304298;" d="M3009.698,1076.233h-159.449c-4.2,0-7.604-3.405-7.604-7.604v-50.977
			c0-4.2,3.404-7.605,7.604-7.605h159.449c4.2,0,7.604,3.404,7.604,7.605v50.977
			C3017.303,1072.828,3013.898,1076.233,3009.698,1076.233z"/>
		<path style="fill:#304298;" d="M3005.49,1104.914h-151.861c-2.64,0-4.779-2.141-4.779-4.78l0,0c0-2.64,2.14-4.78,4.779-4.78
			h151.861c2.641,0,4.78,2.141,4.78,4.78l0,0C3010.271,1102.773,3008.131,1104.914,3005.49,1104.914z"/>
		<rect x="2850.32" y="1024.02" style="fill:#223466;" width="4.708" height="50.549"/>
		<rect x="2860.816" y="1024.02" style="fill:#223466;" width="4.708" height="50.549"/>
		<rect x="2871.313" y="1024.02" style="fill:#223466;" width="4.708" height="50.549"/>
		<rect x="2881.81" y="1024.02" style="fill:#223466;" width="4.708" height="50.549"/>
		<rect x="2892.307" y="1024.02" style="fill:#223466;" width="4.708" height="50.549"/>
		<rect x="2902.803" y="1024.02" style="fill:#223466;" width="4.709" height="50.549"/>
		<rect x="2913.299" y="1024.02" style="fill:#223466;" width="4.709" height="50.549"/>
		<rect x="2923.796" y="1024.02" style="fill:#223466;" width="4.708" height="50.549"/>
		<rect x="2934.292" y="1024.02" style="fill:#223466;" width="4.709" height="50.549"/>
		<rect x="2944.789" y="1024.02" style="fill:#223466;" width="4.709" height="50.549"/>
		<rect x="2955.285" y="1024.02" style="fill:#223466;" width="4.709" height="50.549"/>
		<rect x="2965.782" y="1024.02" style="fill:#223466;" width="4.708" height="50.549"/>
		<rect x="2976.279" y="1024.02" style="fill:#223466;" width="4.708" height="50.549"/>
		<rect x="2986.775" y="1024.02" style="fill:#223466;" width="4.708" height="50.549"/>
		<rect x="2997.271" y="1024.02" style="fill:#223466;" width="4.709" height="50.549"/>
		<rect x="3007.769" y="1024.02" style="fill:#223466;" width="4.708" height="50.549"/>
		<path style="fill:#405CC6;" d="M3008.073,1018.32h-157.175c-1.127,0-2.049-0.923-2.049-2.05l0,0c0-1.127,0.922-2.05,2.049-2.05
			h157.175c1.127,0,2.05,0.923,2.05,2.05l0,0C3010.123,1017.398,3009.2,1018.32,3008.073,1018.32z"/>
	</g>
	<path style="opacity:0.58;fill:#FFFFFF;" d="M2750.382,1199.425c-7.098,9.291-13.151,20.015-13.718,31.692
		c-0.565,11.679,5.719,24.298,16.809,28.001c13.384,4.469,27.773-5.375,34.979-17.507c7.206-12.132,9.749-26.444,15.65-39.262
		c5.278-11.465,13.275-21.667,23.149-29.53c5.041-4.016,35.837-20.576,33.496-28.578c-1.96-6.703-21.567,2.128-26.59,3.538
		C2800.959,1157.1,2771.838,1171.337,2750.382,1199.425z"/>
	<path style="opacity:0.58;fill:#FFFFFF;" d="M2696.173,1440.301v241.355c0,0-4.484,50.672,27.805,50.672
		s29.126-50.672,29.126-50.672l0.085-241.355c0,0,1.363-28.648-29.211-27.843S2696.173,1440.301,2696.173,1440.301z"/>
	<path style="opacity:0.58;fill:#FFFFFF;" d="M2719.756,1901.785c7.333,9.081,14.86,18.157,24.102,25.289
		s20.45,12.254,32.124,12.287c1.655,0.004,3.42-0.13,4.745-1.121c2.084-1.559,2.291-4.732,1.268-7.125
		c-1.021-2.393-2.971-4.239-4.709-6.176c-6.464-7.205-10.485-16.564-11.262-26.213c-0.511-6.364,0.305-13.021-2.107-18.933
		c-2.515-6.163-8.151-10.48-13.944-13.76c-9.157-5.185-32.477-16.229-42.294-6.81
		C2695.643,1870.77,2712.432,1892.715,2719.756,1901.785z"/>
</g>
<g>
	<path style="fill:#AADBFB;" d="M3164.858,363.681c-2.661-22.625-187.306-134.418-187.306-134.418h-0.747v-80.851h-127.278v80.851
		l-157.752,134.251c0,0-34.781,94.445-35.775,102.905c-2.662,22.625-4.426,387.022,6.222,405.653
		c10.646,18.632,73.198,58.559,73.198,58.559h159.271h37.697h159.271c0,0,62.551-39.926,73.198-58.559
		C3175.506,853.441,3167.521,386.306,3164.858,363.681z"/>
	<path style="fill:#85C2F9;" d="M3164.858,363.681c-2.661-22.625-177.653-134.795-177.653-134.795V150.03l-45.002-1.617v80.851
		h0.747c0,0,184.644,111.793,187.306,134.418c2.662,22.625,10.646,489.76,0,508.392c-10.646,18.632-73.198,58.559-73.198,58.559
		h34.603c0,0,62.551-39.926,73.198-58.559C3175.506,853.441,3167.52,386.306,3164.858,363.681z"/>
	<g>
		<path style="fill:#304298;" d="M2993.518,164.026H2844.88c-3.915,0-7.089-3.174-7.089-7.089v-47.521
			c0-3.915,3.174-7.089,7.089-7.089h148.638c3.915,0,7.089,3.174,7.089,7.089v47.521
			C3000.606,160.852,2997.433,164.026,2993.518,164.026z"/>
		<path style="fill:#304298;" d="M2989.596,190.762h-141.564c-2.461,0-4.456-1.995-4.456-4.456l0,0c0-2.461,1.995-4.456,4.456-4.456
			h141.564c2.46,0,4.455,1.995,4.455,4.456l0,0C2994.051,188.767,2992.056,190.762,2989.596,190.762z"/>
		<rect x="2844.946" y="115.353" style="fill:#223466;" width="4.39" height="47.121"/>
		<rect x="2854.731" y="115.353" style="fill:#223466;" width="4.389" height="47.121"/>
		<rect x="2864.516" y="115.353" style="fill:#223466;" width="4.39" height="47.121"/>
		<rect x="2874.301" y="115.353" style="fill:#223466;" width="4.389" height="47.121"/>
		<rect x="2884.086" y="115.353" style="fill:#223466;" width="4.389" height="47.121"/>
		<rect x="2893.87" y="115.353" style="fill:#223466;" width="4.39" height="47.121"/>
		<rect x="2903.655" y="115.353" style="fill:#223466;" width="4.39" height="47.121"/>
		<rect x="2913.439" y="115.353" style="fill:#223466;" width="4.39" height="47.121"/>
		<rect x="2923.225" y="115.353" style="fill:#223466;" width="4.39" height="47.121"/>
		<rect x="2933.01" y="115.353" style="fill:#223466;" width="4.389" height="47.121"/>
		<rect x="2942.795" y="115.353" style="fill:#223466;" width="4.389" height="47.121"/>
		<rect x="2952.579" y="115.353" style="fill:#223466;" width="4.39" height="47.121"/>
		<rect x="2962.364" y="115.353" style="fill:#223466;" width="4.389" height="47.121"/>
		<rect x="2972.149" y="115.353" style="fill:#223466;" width="4.389" height="47.121"/>
		<rect x="2981.934" y="115.353" style="fill:#223466;" width="4.389" height="47.121"/>
		<rect x="2991.719" y="115.353" style="fill:#223466;" width="4.389" height="47.121"/>
		<path style="fill:#405CC6;" d="M2992.003,110.04h-146.517c-1.051,0-1.911-0.86-1.911-1.911l0,0c0-1.051,0.86-1.911,1.911-1.911
			h146.517c1.05,0,1.91,0.86,1.91,1.911l0,0C2993.913,109.18,2993.053,110.04,2992.003,110.04z"/>
	</g>
	<polygon style="opacity:0.35;fill:#85C2F9;" points="2735.42,930.632 2913.54,886.713 3091.66,930.632 	"/>
	<polygon style="fill:#85C2F9;" points="3091.66,930.632 2735.42,930.632 2728.414,926.056 3099.938,925.211 	"/>
	<path style="opacity:0.58;fill:#FFFFFF;" d="M2861.937,256.489l-115.507,88.816c-7.69,5.913-3.509,18.21,6.191,18.21h75.467
		c3.938,0,7.52-2.275,9.194-5.839l41.719-88.815c3.164-6.737-1.752-14.477-9.194-14.477h-1.678
		C2865.889,254.384,2863.712,255.124,2861.937,256.489z"/>
	<path style="opacity:0.58;fill:#FFFFFF;" d="M2707.678,405.853v453.328c0,5.467,4.432,9.898,9.898,9.898h61.731
		c5.466,0,9.897-4.432,9.897-9.898V405.853c0-5.466-4.432-9.898-9.897-9.898h-61.731
		C2712.109,395.955,2707.678,400.387,2707.678,405.853z"/>
	<polygon style="fill:#85C2F9;" points="3134.551,363.515 2958.876,368.007 3141.038,385.973 	"/>
	<path style="fill:#85C2F9;" d="M3151.02,869.079c-1.497,0.998-135.748,2.994-135.748,2.994l122.273,11.479L3151.02,869.079z"/>
	<path style="fill:#AADBFB;" d="M2860.131,247.839c0,0-128.429-11.313-145.73,27.283c-14.244,31.774-6.986,195.522-6.986,195.522
		L2656,466.42c0,0-7.392-180.074,21.802-226.566c26.95-42.92,187.874-35.579,187.874-35.579L2860.131,247.839z"/>
	<path style="opacity:0.58;fill:#FFFFFF;" d="M2827.21,213.896c-2.572-1.337-5.633-1.202-8.523-0.98
		c-23.983,1.844-46.423,1.148-70.245,4.479c-28.551,3.993-53.538,18.887-53.538,18.887c-4.417,2.475-8.283,7.609-6.425,12.318
		c1.637,4.148,7.025,5.659,11.355,4.59c4.329-1.069,7.911-3.995,11.568-6.547c15.805-11.028,35.097-15.982,54.229-18.29
		c19.134-2.308,38.485-2.177,57.657-4.122c2.6-0.264,5.587-0.816,6.847-3.104C2831.533,218.586,2829.782,215.234,2827.21,213.896z"
		/>
	<path style="opacity:0.58;fill:#FFFFFF;" d="M2673.907,276.711c-1.174,3.357-0.924,7.02-0.716,10.57
		c1.189,20.22,0.588,40.544-1.795,60.659c-0.607,5.12-0.364,11.873,4.544,13.451c3.308,1.064,6.934-1.298,8.497-4.4
		c1.563-3.103,1.58-6.727,1.563-10.201c-0.113-22.932-0.227-45.864-0.34-68.798C2685.612,268.495,2676.88,268.207,2673.907,276.711z
		"/>
</g>
</svg>
